<?xml version="1.0" standalone="no"?>
<!DOCTYPE svg PUBLIC "-//W3C//DTD SVG 20010904//EN"
 "http://www.w3.org/TR/2001/REC-SVG-20010904/DTD/svg10.dtd">
<svg version="1.0" xmlns="http://www.w3.org/2000/svg"
 width="1080.000000pt" height="1080.000000pt" viewBox="0 0 1080.000000 1080.000000"
 preserveAspectRatio="xMidYMid meet">

<g transform="translate(0.000000,1080.000000) scale(0.100000,-0.100000)"
fill="#000000" stroke="none">
<path d="M5310 10553 c-8 -3 -18 -10 -21 -16 -4 -5 -18 -11 -32 -12 -52 -6
-88 -17 -103 -32 -13 -13 -19 -14 -39 -3 -19 10 -30 10 -54 0 -17 -7 -31 -19
-31 -27 0 -10 -10 -6 -34 12 -22 16 -37 22 -41 15 -3 -5 0 -13 8 -16 8 -3 17
-14 20 -24 4 -15 -1 -18 -24 -18 -22 1 -28 5 -26 22 3 30 -31 33 -42 4 -6 -13
-10 -17 -10 -10 -1 6 -12 12 -25 12 -17 0 -29 -9 -38 -27 -12 -24 -19 -28 -53
-27 -35 1 -37 0 -17 -9 27 -12 29 -27 3 -27 -10 0 -24 -7 -31 -15 -9 -11 -16
-13 -23 -6 -7 7 -5 17 8 31 18 19 18 20 -3 20 -15 0 -22 -6 -22 -20 0 -11 -4
-20 -10 -20 -5 0 -18 -9 -29 -21 -11 -12 -24 -18 -29 -15 -6 4 -8 -3 -5 -16 4
-21 4 -22 -10 -5 -14 16 -16 15 -31 -17 -9 -19 -16 -39 -16 -46 0 -7 -8 -9
-21 -5 -13 5 -19 3 -15 -3 8 -13 -182 -208 -200 -204 -8 2 -14 -5 -14 -16 0
-23 -52 -62 -58 -44 -7 23 -21 11 -18 -15 2 -16 1 -20 -1 -10 -6 25 -15 21
-42 -18 -13 -19 -27 -32 -32 -29 -5 3 -9 -1 -9 -10 0 -8 -15 -26 -32 -40 -18
-14 -43 -36 -55 -48 -13 -13 -23 -17 -23 -11 0 7 5 15 10 18 6 4 8 10 5 15 -3
5 6 21 21 35 14 14 24 29 21 31 -10 10 -67 -39 -67 -57 0 -19 -26 -33 -35 -19
-6 9 -176 -158 -300 -294 -33 -36 -65 -64 -71 -62 -6 2 -16 -5 -22 -15 -7 -10
-18 -19 -25 -19 -23 -1 -56 -37 -52 -58 5 -27 -23 -52 -35 -32 -7 11 -11 11
-24 1 -12 -10 -16 -10 -16 -1 0 6 -16 -5 -36 -25 -26 -27 -35 -44 -31 -61 2
-13 0 -21 -4 -18 -5 3 -14 -6 -21 -20 -6 -14 -19 -26 -30 -26 -12 0 -18 -8
-19 -25 -1 -14 -3 -40 -4 -57 -6 -68 17 -182 47 -240 17 -32 34 -55 39 -52 5
3 9 2 9 -3 0 -4 15 -24 34 -44 44 -46 35 -66 -17 -40 -20 10 -37 16 -37 12 0
-4 -18 -6 -39 -5 -32 1 -38 -1 -34 -14 4 -10 2 -13 -5 -8 -7 4 -12 3 -12 -3 0
-5 7 -14 15 -19 21 -11 9 -43 -12 -35 -10 4 -14 2 -10 -4 5 -7 0 -9 -13 -6
-16 4 -19 2 -14 -11 3 -9 1 -16 -5 -16 -6 0 -11 -4 -11 -10 0 -5 7 -10 15 -10
8 0 15 -5 15 -10 0 -6 -11 -8 -25 -4 -26 6 -36 -9 -12 -20 6 -3 -3 -3 -22 0
-24 4 -31 3 -26 -6 4 -6 -1 -18 -11 -26 -18 -13 -18 -15 6 -34 l25 -20 -23 0
c-12 0 -25 -7 -28 -15 -3 -8 -15 -17 -25 -20 -14 -5 -18 -12 -14 -27 5 -14 1
-21 -14 -25 -21 -5 -30 -33 -11 -33 6 0 10 -5 10 -12 0 -6 -3 -9 -6 -5 -12 12
-33 -17 -22 -31 6 -7 8 -16 4 -19 -4 -4 -12 -1 -17 7 -8 11 -9 8 -5 -12 5 -24
3 -28 -14 -28 l-21 0 21 -22 c24 -26 25 -38 4 -38 -10 0 -14 -6 -10 -15 3 -8
2 -15 -3 -15 -16 0 -20 -54 -5 -63 20 -11 17 -31 -7 -53 -15 -13 -19 -26 -15
-46 3 -15 1 -30 -5 -34 -6 -4 -7 -10 0 -17 11 -15 -1 -91 -19 -112 -9 -11 -9
-15 -1 -15 11 0 11 -16 -5 -102 -4 -20 -1 -28 13 -31 16 -4 15 -6 -4 -12 -27
-8 -26 -6 -13 -39 6 -16 6 -35 0 -50 -6 -18 -5 -28 6 -37 13 -11 13 -23 -3
-66 -3 -7 2 -13 11 -13 9 0 16 -7 16 -15 0 -8 -6 -15 -12 -15 -10 0 -10 -2 0
-9 10 -6 11 -19 7 -45 -6 -31 -3 -42 16 -64 13 -14 16 -20 7 -13 -16 12 -18
10 -18 -18 0 -23 5 -31 18 -31 14 0 15 -2 2 -10 -12 -8 -13 -11 -1 -19 10 -6
10 -10 1 -13 -9 -3 -9 -28 -1 -113 6 -59 11 -142 11 -183 0 -140 9 -70 26 197
2 40 7 77 9 82 3 4 1 11 -5 14 -8 5 -8 11 0 20 12 15 3 85 -11 85 -8 0 -2 140
7 149 2 2 -1 10 -8 18 -8 10 -7 21 5 46 8 17 26 55 38 82 27 57 36 66 58 57
14 -5 14 -4 1 10 -9 10 -17 12 -21 6 -4 -6 -11 -8 -17 -4 -6 3 -12 -4 -14 -16
-4 -28 -23 -26 -21 2 0 11 1 36 2 55 1 33 21 52 21 20 0 -8 5 -15 10 -15 6 0
10 7 10 15 0 22 -4 30 -12 28 -5 -2 -8 3 -8 11 0 21 26 27 47 11 24 -19 33
-18 33 0 0 8 -5 15 -11 15 -5 0 -7 5 -4 10 4 6 1 17 -5 25 -7 9 -9 22 -4 32 4
10 9 29 10 42 2 13 10 31 18 40 9 10 16 22 16 28 0 5 11 22 25 37 14 15 25 34
25 42 0 9 5 25 12 37 11 21 11 21 19 2 5 -14 8 -7 8 24 1 26 8 52 17 62 22 25
14 47 -9 25 -15 -16 -17 -16 -17 -1 0 8 6 18 13 21 8 3 13 18 12 34 -2 30 8
39 20 20 10 -16 25 -11 25 8 0 10 11 25 25 32 17 9 23 19 20 30 -3 10 1 23 10
30 8 6 17 28 21 47 4 23 11 33 20 29 9 -3 14 1 14 12 0 10 13 31 30 47 16 15
27 31 25 36 -3 4 1 9 7 12 10 4 11 7 1 18 -16 16 -17 55 -2 64 6 4 13 -3 16
-14 6 -23 28 -24 28 -1 0 13 35 39 85 61 17 8 21 13 11 16 -9 4 -3 10 18 19
17 7 31 20 31 29 0 8 9 15 20 15 10 0 23 6 27 13 4 7 19 13 33 12 18 0 25 5
24 18 -2 14 1 15 12 6 11 -9 18 -8 29 1 9 7 13 15 10 18 -7 7 44 32 66 32 11
0 19 5 19 10 0 6 15 10 34 10 18 0 39 7 46 15 11 13 15 14 29 2 9 -8 23 -15
31 -16 100 -9 112 -8 120 13 9 21 9 21 9 -2 1 -12 8 -25 16 -28 8 -4 15 -13
15 -21 0 -12 3 -13 14 -4 11 9 20 9 38 -1 13 -7 26 -17 30 -23 4 -5 10 -6 14
-2 4 4 13 2 21 -4 7 -6 13 -8 13 -3 0 5 7 -2 16 -14 8 -12 23 -22 33 -22 9 0
21 -4 26 -9 6 -4 33 -14 60 -21 28 -7 57 -19 66 -27 9 -7 29 -13 45 -11 16 1
39 -4 51 -10 12 -7 36 -14 55 -17 49 -7 150 -17 171 -17 9 1 17 -4 17 -11 0
-8 3 -8 12 1 14 14 42 16 33 2 -4 -6 4 -6 22 1 23 8 30 7 43 -8 11 -13 31 -18
74 -20 35 -1 62 -7 67 -14 6 -10 11 -10 22 0 12 10 18 8 30 -10 9 -12 20 -18
27 -14 7 4 46 9 87 11 69 3 74 2 68 -16 -7 -23 9 -34 33 -21 11 6 24 6 32 1 9
-6 17 -5 22 3 6 9 12 9 28 -1 14 -8 20 -9 20 -1 0 8 5 8 15 -1 12 -10 15 -10
15 1 0 9 4 7 13 -4 11 -16 18 -16 92 -2 44 9 92 19 106 24 15 5 32 5 38 2 6
-4 69 -6 141 -4 71 2 130 0 130 -5 0 -4 15 -6 34 -4 26 3 39 -1 52 -16 10 -12
21 -19 26 -16 5 3 14 1 21 -4 20 -17 196 -45 210 -34 17 14 95 0 135 -23 28
-17 34 -18 42 -5 7 12 12 12 22 2 21 -21 29 -13 23 22 -8 42 14 58 69 49 23
-4 36 -2 36 6 0 6 7 11 16 11 8 0 13 -4 10 -8 -3 -5 28 -8 69 -6 72 2 73 2 85
-27 7 -16 10 -35 6 -44 -3 -9 0 -15 8 -15 19 0 31 -140 17 -200 -14 -58 -14
-73 0 -64 8 4 9 -3 4 -24 -3 -18 -2 -33 4 -37 7 -3 11 2 11 14 0 11 5 23 10
26 6 4 10 -9 9 -32 -1 -40 -16 -99 -18 -73 -1 10 -7 6 -16 -10 -19 -33 -18
-40 3 -40 28 0 58 40 61 79 2 47 30 167 44 195 31 58 70 64 116 20 26 -26 51
-30 69 -12 9 9 12 9 12 0 0 -6 13 -40 28 -74 16 -35 37 -85 47 -113 25 -69 55
-134 66 -141 5 -3 9 -18 9 -35 0 -16 5 -29 10 -29 6 0 10 7 10 15 0 8 5 15 10
15 6 0 10 -16 10 -35 0 -19 4 -35 10 -35 5 0 7 7 4 15 -4 8 -1 15 5 15 14 0
46 -49 37 -57 -3 -3 -6 -1 -6 5 0 7 -8 12 -17 11 -11 0 -13 -3 -5 -6 6 -2 12
-11 12 -19 0 -9 4 -12 10 -9 6 4 10 -13 10 -45 0 -29 7 -61 15 -74 9 -13 15
-39 14 -57 0 -19 4 -60 11 -92 6 -31 8 -62 5 -67 -3 -6 -2 -10 3 -10 5 0 12
-9 15 -20 4 -17 1 -19 -19 -14 -28 7 -30 -3 -8 -34 8 -12 13 -26 9 -31 -3 -5
0 -13 6 -17 8 -4 7 -9 -2 -15 -8 -5 -9 -9 -4 -9 7 0 9 -15 7 -35 -4 -30 -2
-34 14 -28 13 5 16 3 11 -10 -10 -26 2 -20 13 6 6 16 7 9 3 -24 -4 -34 -1 -49
11 -61 12 -12 13 -17 3 -21 -9 -3 -9 -7 -1 -18 6 -8 14 -27 18 -44 6 -24 5
-28 -5 -17 -16 15 -39 16 -39 1 0 -5 5 -7 10 -4 6 3 10 1 10 -4 0 -6 7 -11 15
-11 17 0 22 -55 6 -64 -5 -3 -8 -19 -7 -36 1 -16 0 -30 -3 -30 -3 0 -7 -53 -9
-118 -3 -104 -2 -115 11 -97 8 11 18 44 22 73 4 28 10 52 14 52 4 0 7 19 6 43
-1 23 2 47 7 54 5 7 7 16 4 21 -3 5 2 21 10 37 8 16 14 43 13 60 -2 16 1 30 6
30 13 0 22 47 24 115 1 34 4 50 10 42 5 -8 6 8 3 37 -3 34 -1 51 7 51 6 0 11
-8 12 -17 1 -10 5 -3 9 16 5 19 6 41 2 49 -4 12 0 14 17 9 l22 -5 -21 35 c-11
19 -17 39 -13 45 4 7 10 2 15 -13 7 -18 11 -20 18 -10 5 8 4 25 -1 39 -10 27
-3 62 12 62 7 0 8 12 4 30 -4 17 -2 30 3 30 11 0 22 46 13 55 -10 11 -12 95
-2 95 6 0 8 14 6 30 -3 24 0 30 13 28 26 -5 21 44 -8 70 -14 12 -18 20 -10 17
19 -7 20 26 2 65 -44 99 -51 122 -42 145 5 14 6 25 1 25 -4 0 -9 26 -10 57 -1
32 -5 60 -10 63 -4 3 -11 17 -15 33 -3 15 -11 27 -16 27 -6 0 -10 11 -10 23 0
13 -8 34 -19 45 -14 16 -18 39 -19 89 -1 42 -9 89 -21 123 -23 61 -26 74 -11
65 5 -3 7 0 4 8 -3 8 2 20 11 27 18 15 20 37 3 42 -7 3 -8 9 -3 18 6 10 10 10
21 -4 18 -26 26 -6 32 89 5 93 -2 135 -23 135 -7 0 -17 10 -21 22 -8 27 -19
37 -66 67 -21 12 -38 26 -38 31 0 5 -3 16 -6 24 -5 12 -2 15 12 9 12 -4 15 -3
10 5 -4 7 -11 12 -17 12 -24 0 -89 36 -89 50 0 8 -9 26 -20 40 -17 21 -21 23
-30 10 -10 -13 -11 -13 -8 0 4 27 -12 70 -27 70 -7 0 -20 9 -28 21 -11 15 -16
17 -20 7 -4 -10 -6 -9 -6 2 -1 15 -54 68 -94 94 -17 12 -33 12 -76 5 -37 -7
-57 -7 -64 0 -8 8 1 11 31 11 40 0 92 17 92 29 0 10 -60 43 -60 34 0 -4 -5 0
-11 10 -5 9 -26 24 -45 32 -18 8 -34 19 -34 24 0 6 -6 8 -14 5 -9 -3 -17 3
-21 15 -3 12 -12 21 -19 21 -8 0 -19 7 -26 15 -11 13 -10 15 6 12 11 -1 25 -6
32 -10 7 -5 12 -3 12 6 0 7 -11 19 -24 27 -16 8 -22 18 -19 28 4 10 2 13 -5 8
-15 -9 -15 -1 -2 24 8 15 6 17 -10 13 -11 -3 -20 -1 -20 5 0 21 18 21 44 1 15
-12 33 -18 42 -15 8 3 13 2 10 -2 -3 -4 4 -13 15 -20 28 -18 25 3 -6 40 -14
16 -22 34 -19 40 9 14 -15 28 -48 28 -29 0 -38 14 -15 23 7 3 4 6 -6 6 -13 1
-17 6 -12 20 5 15 2 18 -13 14 -11 -2 -23 1 -28 8 -5 9 -2 11 12 6 12 -5 9 1
-10 17 -16 13 -25 29 -22 35 4 6 3 11 -3 11 -5 0 -12 -6 -14 -12 -4 -10 -6
-10 -6 0 -1 6 -10 12 -21 12 -13 0 -20 7 -20 20 0 11 -4 20 -10 20 -5 0 -10 7
-10 15 0 9 -9 15 -25 15 -14 0 -25 5 -25 10 0 6 -7 10 -15 10 -8 0 -15 4 -15
9 0 5 -8 12 -19 16 -25 8 -71 51 -63 59 3 4 -1 4 -11 0 -11 -4 -17 -1 -17 8 0
10 -14 13 -47 13 -27 0 -51 4 -56 10 -4 6 -10 1 -13 -12 -4 -13 -10 -20 -15
-17 -5 3 -7 10 -3 15 3 5 10 23 14 40 7 24 6 28 -3 20 -8 -6 -18 -6 -27 -1 -8
6 -10 10 -5 10 6 0 -1 7 -15 15 -30 17 -64 20 -54 4 4 -7 -1 -10 -11 -7 -30 5
-28 25 5 38 44 18 29 25 -26 11 -31 -8 -49 -9 -53 -2 -4 6 -26 13 -49 17 -23
4 -42 10 -42 15 0 5 -7 9 -15 9 -8 0 -15 4 -15 9 0 5 -10 11 -22 13 -17 2 -22
9 -21 25 2 18 -2 22 -28 21 -18 -1 -35 6 -44 18 -11 15 -16 17 -26 7 -7 -7
-19 -13 -27 -13 -11 0 -12 3 -3 14 11 12 6 15 -31 18 -24 2 -59 -2 -78 -9 -20
-6 -36 -7 -38 -2 -2 5 -17 9 -33 9 -31 0 -36 9 -17 28 8 8 9 12 1 12 -6 0 -18
-6 -25 -13 -7 -8 -19 -12 -27 -9 -8 3 -11 0 -7 -7 4 -6 0 -11 -9 -11 -9 0 -13
4 -10 10 3 6 -1 7 -9 4 -9 -3 -16 -9 -16 -13 0 -4 -11 -7 -25 -7 -14 0 -25 6
-25 13 0 18 -10 16 -26 -4 -20 -28 -26 -10 -9 30 18 43 18 47 5 47 -5 0 -10
-7 -10 -14 0 -17 -80 -19 -92 -2 -9 14 -79 11 -88 -4 -6 -9 -9 -9 -15 0 -5 8
-23 9 -55 5 -39 -5 -48 -3 -54 10 -3 9 -10 14 -15 10 -5 -3 -12 -1 -16 5 -7
11 -12 11 -35 3z m-323 -149 c-3 -3 -12 -4 -19 -1 -8 3 -5 6 6 6 11 1 17 -2
13 -5z m-62 -44 c-3 -5 -12 -10 -18 -10 -7 0 -6 4 3 10 19 12 23 12 15 0z
m-33 -27 c-6 -2 -10 -9 -6 -14 3 -5 -5 -9 -17 -9 -22 0 -22 0 -3 15 10 8 24
14 29 14 6 0 4 -3 -3 -6z m703 -144 c11 -17 -1 -21 -15 -4 -8 9 -8 15 -2 15 6
0 14 -5 17 -11z m-635 -89 c-13 -11 -28 -20 -33 -20 -6 0 3 11 19 25 15 13 30
22 33 20 2 -3 -6 -14 -19 -25z m1410 16 c0 -3 -4 -8 -10 -11 -5 -3 -10 -1 -10
4 0 6 5 11 10 11 6 0 10 -2 10 -4z m-81 -28 c-13 -5 -42 -11 -64 -14 -36 -4
-38 -3 -15 7 36 16 83 27 94 21 5 -3 -1 -9 -15 -14z m-1389 -22 c0 -10 -111
-87 -121 -84 -6 2 15 22 48 45 53 39 73 49 73 39z m1950 -36 c0 -5 -4 -10 -10
-10 -5 0 -10 5 -10 10 0 6 5 10 10 10 6 0 10 -4 10 -10z m-846 -19 c3 -5 -6
-11 -19 -14 -29 -5 -45 9 -18 16 29 8 32 7 37 -2z m-1404 -150 c0 -5 -10 -13
-22 -17 -13 -4 -26 -12 -30 -18 -4 -6 -6 -1 -5 12 1 13 6 21 14 18 7 -3 15 -1
18 4 8 13 25 13 25 1z m2479 -416 c4 -5 -53 -1 -77 4 -2 1 -1 5 3 10 5 9 61
-2 74 -14z m260 -106 c13 -11 21 -22 19 -25 -3 -3 -19 6 -34 20 -34 30 -20 35
15 5z m-39 -90 c0 -4 -7 -6 -15 -3 -8 4 -15 10 -15 15 0 4 7 6 15 3 8 -4 15
-10 15 -15z m409 -349 c0 -23 -1 -23 -9 -5 -5 11 -9 29 -9 40 -1 17 1 17 9 5
5 -8 9 -26 9 -40z m-32 -40 c-3 -24 -4 -23 -21 14 -9 21 -15 45 -11 54 9 23
37 -35 32 -68z m-3223 -5 c3 -8 1 -15 -4 -15 -6 0 -10 7 -10 15 0 8 2 15 4 15
2 0 6 -7 10 -15z m2026 -285 c0 -5 -5 -10 -11 -10 -5 0 -7 5 -4 10 3 6 8 10
11 10 2 0 4 -4 4 -10z m651 -35 c-2 -11 34 -41 40 -32 3 5 9 -1 12 -12 7 -26
-12 -27 -41 -2 -14 11 -22 29 -21 47 0 16 3 23 6 17 2 -7 4 -15 4 -18z m-21
-16 c0 -10 -4 -19 -10 -19 -5 0 -10 12 -10 26 0 14 4 23 10 19 6 -3 10 -15 10
-26z m120 -149 c0 -11 -7 -20 -15 -20 -15 0 -21 21 -8 33 12 13 23 7 23 -13z
m55 -20 c3 -5 1 -10 -4 -10 -6 0 -11 5 -11 10 0 6 2 10 4 10 3 0 8 -4 11 -10z
m31 -94 c-2 -6 -8 0 -14 14 -5 14 -7 29 -4 34 7 12 24 -33 18 -48z m69 -116
c9 -13 33 -93 35 -112 0 -5 -4 -8 -9 -8 -5 0 -12 15 -15 34 -4 19 -10 36 -14
38 -9 4 -42 101 -41 119 0 8 8 -2 17 -21 10 -19 21 -42 27 -50z m81 -96 c3
-24 10 -47 15 -50 5 -3 9 -19 9 -35 0 -18 -4 -28 -10 -24 -6 4 -8 11 -4 16 3
5 0 17 -7 25 -6 8 -13 33 -16 56 -2 23 -8 47 -13 52 -16 16 -12 30 5 16 7 -6
17 -32 21 -56z m-29 -36 c-3 -8 -6 -5 -6 6 -1 11 2 17 5 13 3 -3 4 -12 1 -19z
m-4390 -380 c-3 -8 -6 -5 -6 6 -1 11 2 17 5 13 3 -3 4 -12 1 -19z m20 -20 c-3
-8 -6 -5 -6 6 -1 11 2 17 5 13 3 -3 4 -12 1 -19z"/>
<path d="M4770 10429 c0 -5 5 -7 10 -4 6 3 10 8 10 11 0 2 -4 4 -10 4 -5 0
-10 -5 -10 -11z"/>
<path d="M4372 10141 c-18 -22 -32 -45 -32 -52 0 -10 39 38 64 79 15 25 -1 11
-32 -27z"/>
<path d="M4247 10013 c-4 -3 -7 -11 -7 -17 0 -6 5 -5 12 2 6 6 9 14 7 17 -3 3
-9 2 -12 -2z"/>
<path d="M7120 9640 c0 -5 5 -10 10 -10 6 0 10 5 10 10 0 6 -4 10 -10 10 -5 0
-10 -4 -10 -10z"/>
<path d="M7650 9105 c7 -8 20 -15 29 -15 13 1 13 3 -3 15 -26 19 -42 19 -26 0z"/>
<path d="M7128 8343 c7 -3 16 -2 19 1 4 3 -2 6 -13 5 -11 0 -14 -3 -6 -6z"/>
<path d="M3271 7944 c0 -11 3 -14 6 -6 3 7 2 16 -1 19 -3 4 -6 -2 -5 -13z"/>
<path d="M3187 7909 c-10 -23 -17 -43 -15 -44 8 -8 72 12 76 24 3 9 -2 11 -17
6 -16 -5 -21 -2 -21 12 0 11 5 24 12 31 9 9 9 12 -3 12 -8 0 -22 -19 -32 -41z"/>
<path d="M3197 7839 c7 -7 15 -10 18 -7 3 3 -2 9 -12 12 -14 6 -15 5 -6 -5z"/>
<path d="M3157 7723 c-4 -3 -7 -11 -7 -17 0 -6 5 -5 12 2 6 6 9 14 7 17 -3 3
-9 2 -12 -2z"/>
<path d="M3612 6948 c2 -7 -3 -12 -10 -10 -17 3 -40 -20 -35 -34 2 -7 -13 -15
-34 -19 -21 -4 -46 -15 -56 -26 -11 -11 -31 -19 -52 -19 -48 0 -56 -20 -8 -21
21 0 32 -3 26 -6 -10 -3 -10 -10 -2 -24 5 -11 7 -24 4 -29 -3 -6 1 -10 10 -10
17 0 67 -24 95 -46 19 -16 52 -21 67 -11 7 4 21 3 32 -3 11 -5 30 -10 43 -10
18 0 20 -2 8 -10 -21 -13 -7 -22 42 -24 23 -2 37 -1 30 2 -59 19 96 22 168 2
52 -14 151 -31 198 -35 19 -1 37 -7 41 -13 3 -6 21 -10 38 -9 18 1 32 -2 32
-8 -1 -11 28 -24 56 -24 l20 0 -20 10 c-15 7 -11 7 14 3 23 -4 36 -2 42 7 6
10 11 11 19 3 16 -16 50 -6 43 12 -3 9 2 14 14 14 10 0 24 5 31 12 9 9 18 9
36 0 21 -9 24 -9 19 3 -3 8 -9 15 -15 15 -5 0 -6 5 -3 10 3 6 2 10 -3 10 -5 0
-12 9 -15 20 l-5 21 31 -20 c18 -11 38 -30 44 -43 11 -20 13 -20 13 -4 0 19
-65 126 -84 138 -37 22 -56 47 -49 63 4 13 3 16 -6 11 -7 -5 -17 -2 -24 7 -15
19 -57 32 -57 18 0 -6 6 -11 13 -11 7 0 19 -10 27 -21 8 -12 24 -30 34 -40 11
-10 17 -22 13 -25 -3 -4 -22 10 -41 30 -32 33 -66 47 -66 29 0 -15 -98 -6
-121 11 -13 9 -29 16 -36 16 -7 0 -13 4 -13 9 0 4 12 6 28 4 23 -4 24 -3 9 7
-19 12 -61 4 -52 -11 4 -5 -1 -9 -9 -9 -9 0 -16 7 -16 15 0 9 -9 15 -24 15
-37 0 -126 -22 -126 -32 0 -4 -11 -8 -25 -8 -26 0 -34 15 -12 23 6 2 -13 2
-43 0 -49 -4 -53 -3 -37 10 39 32 9 43 -53 20 -8 -4 -40 -9 -71 -12 l-57 -7 4
28 c3 30 1 32 -39 42 -19 5 -26 3 -25 -6z m41 -25 c-7 -2 -19 -2 -25 0 -7 3
-2 5 12 5 14 0 19 -2 13 -5z m-52 -26 c-10 -9 -11 -8 -5 6 3 10 9 15 12 12 3
-3 0 -11 -7 -18z m494 -27 c-3 -5 -13 -10 -21 -10 -8 0 -14 5 -14 10 0 6 9 10
21 10 11 0 17 -4 14 -10z m-405 -30 c0 -5 -10 -10 -22 -10 -19 0 -20 2 -8 10
19 13 30 13 30 0z m150 1 c0 -13 -26 -17 -72 -13 -58 6 -45 22 17 22 30 0 55
-4 55 -9z m-305 -31 c4 -6 11 -7 17 -4 7 4 8 2 4 -4 -10 -17 -33 -15 -40 3 -6
17 9 21 19 5z m175 -20 c0 -15 -26 -28 -52 -27 -30 2 -32 5 -20 23 13 21 72
24 72 4z m-215 0 c-28 -12 -45 -12 -45 0 0 6 15 10 33 9 27 0 29 -2 12 -9z
m904 -21 c18 -16 32 -31 30 -32 -2 -2 -11 -8 -21 -15 -12 -10 -18 -10 -24 -1
-4 7 -3 9 4 5 6 -3 14 -2 17 4 8 14 -15 42 -29 37 -13 -5 -38 18 -29 27 11 10
17 7 52 -25z m-814 11 c3 -5 2 -10 -3 -10 -5 0 -25 -2 -43 -5 l-34 -5 30 14
c36 18 42 19 50 6z m165 -10 c0 -5 -5 -10 -11 -10 -5 0 -7 5 -4 10 3 6 8 10
11 10 2 0 4 -4 4 -10z m-90 -40 c0 -11 -4 -20 -10 -20 -5 0 -10 9 -10 20 0 11
5 20 10 20 6 0 10 -9 10 -20z m750 -120 c0 -5 -2 -10 -4 -10 -3 0 -8 5 -11 10
-3 6 -1 10 4 10 6 0 11 -4 11 -10z"/>
<path d="M7606 6927 c3 -10 9 -15 12 -12 3 3 0 11 -7 18 -10 9 -11 8 -5 -6z"/>
<path d="M3718 6923 c7 -3 16 -2 19 1 4 3 -2 6 -13 5 -11 0 -14 -3 -6 -6z"/>
<path d="M3462 6899 c2 -6 8 -10 13 -10 5 0 11 4 13 10 2 6 -4 11 -13 11 -9 0
-15 -5 -13 -11z"/>
<path d="M3985 6900 c-3 -5 -1 -10 4 -10 6 0 11 5 11 10 0 6 -2 10 -4 10 -3 0
-8 -4 -11 -10z"/>
<path d="M4230 6862 c0 -14 8 -16 48 -13 26 3 38 6 27 8 -11 2 -32 8 -47 13
-23 7 -28 6 -28 -8z"/>
<path d="M4471 6851 c27 -37 29 -37 22 -11 -3 11 -14 25 -25 31 -18 10 -18 8
3 -20z"/>
<path d="M4566 6752 c-2 -4 -1 -14 5 -22 7 -12 9 -10 9 8 0 23 -5 28 -14 14z"/>
<path d="M4598 6725 c-8 -8 3 -65 13 -65 5 0 6 15 2 33 -7 37 -8 39 -15 32z"/>
<path d="M7615 6710 c3 -5 8 -10 11 -10 2 0 4 5 4 10 0 6 -5 10 -11 10 -5 0
-7 -4 -4 -10z"/>
<path d="M7602 6670 c0 -14 2 -19 5 -12 2 6 2 18 0 25 -3 6 -5 1 -5 -13z"/>
<path d="M7050 6670 c0 -5 14 -10 31 -10 26 0 30 -3 24 -17 -4 -10 -7 -26 -7
-35 1 -23 -30 -23 -88 -3 -23 8 -62 15 -86 15 -24 0 -44 4 -44 9 0 13 127 6
144 -8 8 -7 25 -11 37 -9 22 3 22 4 5 21 -11 10 -33 17 -56 17 -21 0 -51 5
-66 10 -16 7 -31 7 -36 2 -5 -5 -30 -7 -55 -4 -31 3 -44 1 -39 -6 9 -15 -13
-20 -62 -11 -23 5 -68 11 -100 13 -31 3 -64 6 -72 7 -38 5 -80 -2 -77 -13 3
-15 -64 -29 -79 -17 -8 6 -22 5 -40 -3 -39 -17 -40 -18 -24 -28 20 -13 33 -12
25 0 -4 6 6 10 22 10 l28 0 -30 -20 c-39 -26 -113 -60 -132 -60 -9 0 -13 -6
-9 -15 5 -13 -5 -19 -26 -16 -4 0 -5 -5 -2 -13 4 -10 18 -13 45 -10 38 4 39 3
33 -24 -3 -15 -7 -32 -9 -38 -5 -15 40 -24 74 -14 14 4 77 5 139 4 75 -2 112
0 112 7 0 8 24 10 70 7 64 -3 88 3 58 15 -7 3 -4 6 7 6 11 1 30 -6 42 -14 16
-11 28 -13 48 -5 41 16 80 12 105 -10 16 -14 30 -18 44 -13 12 3 31 6 44 5 12
-1 22 3 22 10 0 7 -16 9 -52 5 l-53 -7 31 19 c29 18 100 18 89 1 -9 -15 14
-21 33 -9 21 13 107 4 117 -12 14 -22 22 -6 14 29 -12 53 -13 52 29 53 32 0
34 1 14 9 -12 5 -29 7 -38 3 -12 -4 -15 -2 -12 8 3 8 -4 19 -15 25 -19 11 -19
11 3 17 16 4 24 1 27 -11 2 -11 13 -17 29 -17 35 2 42 15 8 16 -29 1 -29 1 -4
8 14 4 31 3 38 -2 8 -6 12 -6 12 2 0 6 -4 12 -10 12 -15 2 -22 5 -50 17 -25
11 -25 11 8 11 17 1 32 6 32 11 0 13 -47 32 -80 32 -13 0 -29 6 -35 13 -5 7
-25 16 -44 20 -29 6 -33 5 -28 -9 4 -9 3 -16 -2 -16 -5 0 -11 9 -14 20 -4 15
-14 20 -36 20 -17 0 -31 -4 -31 -10z m-155 -70 c-3 -5 -12 -7 -20 -3 -21 7
-19 13 6 13 11 0 18 -4 14 -10z m95 -6 c0 -2 -9 -4 -20 -4 -11 0 -20 4 -20 9
0 5 9 7 20 4 11 -3 20 -7 20 -9z m-547 -31 c-7 -2 -21 -2 -30 0 -10 3 -4 5 12
5 17 0 24 -2 18 -5z"/>
<path d="M6775 6660 c3 -5 10 -10 16 -10 5 0 9 5 9 10 0 6 -7 10 -16 10 -8 0
-12 -4 -9 -10z"/>
<path d="M7338 6583 c7 -3 16 -2 19 1 4 3 -2 6 -13 5 -11 0 -14 -3 -6 -6z"/>
<path d="M6305 6570 c-3 -5 -2 -10 4 -10 5 0 13 5 16 10 3 6 2 10 -4 10 -5 0
-13 -4 -16 -10z"/>
<path d="M2936 6562 c17 -11 36 -52 31 -65 -2 -7 -1 -21 4 -32 6 -17 8 -17 8
-2 1 25 19 21 24 -5 4 -20 4 -19 6 5 1 17 -4 27 -13 27 -8 0 -18 14 -21 33 -7
31 -20 47 -40 47 -6 0 -5 -3 1 -8z"/>
<path d="M6150 6510 c20 -13 50 -13 50 0 0 6 -15 10 -32 10 -25 0 -29 -3 -18
-10z"/>
<path d="M7264 6459 c-3 -6 -2 -15 2 -19 12 -12 38 5 30 19 -9 14 -23 14 -32
0z"/>
<path d="M6250 6440 c0 -5 7 -10 15 -10 8 0 15 5 15 10 0 6 -7 10 -15 10 -8 0
-15 -4 -15 -10z"/>
<path d="M2985 6366 c0 -35 3 -59 7 -53 10 16 10 117 0 117 -4 0 -7 -29 -7
-64z"/>
<path d="M3556 6412 c-16 -4 -31 -12 -33 -18 -7 -22 84 -33 104 -13 10 10 277
13 418 4 187 -12 238 -23 206 -44 -8 -5 -20 -7 -27 -4 -6 2 -15 -1 -19 -7 -5
-8 -11 -8 -21 1 -8 6 -14 7 -14 2 0 -5 -24 -6 -57 -3 -35 4 -61 3 -65 -3 -4
-7 -16 -6 -35 1 -18 7 -83 10 -183 7 -168 -4 -258 -16 -269 -34 -4 -6 -15 -9
-24 -5 -10 3 -17 1 -17 -5 0 -6 6 -11 13 -12 6 0 2 -5 -10 -11 -47 -23 -17
-46 63 -50 44 -2 59 -7 59 -18 0 -8 9 -18 20 -21 11 -3 19 -10 18 -15 -1 -5
15 -10 34 -11 51 -3 64 -19 33 -43 -27 -21 -16 -26 25 -10 14 5 33 6 43 1 94
-46 167 -67 262 -76 41 -4 78 -12 81 -17 3 -5 17 -5 33 2 35 13 69 13 61 0 -3
-5 1 -10 9 -10 10 0 13 6 10 15 -10 26 12 16 24 -11 7 -14 17 -22 23 -19 6 4
8 9 5 13 -5 4 38 32 50 32 2 0 11 -8 21 -19 20 -20 83 -36 83 -21 0 6 14 10
30 10 17 0 30 -4 30 -10 0 -5 5 -10 11 -10 6 0 8 7 5 16 -3 8 -2 13 3 9 5 -3
21 -1 36 5 29 11 78 3 69 -11 -3 -5 2 -9 11 -9 15 0 45 -22 45 -34 0 -2 -8 -7
-17 -9 -15 -4 -14 -5 2 -6 12 0 26 -6 33 -13 9 -9 12 -7 12 9 0 11 7 26 15 33
23 19 28 49 10 67 -9 9 -14 25 -12 35 4 12 1 18 -6 15 -7 -2 -11 -15 -9 -28 3
-22 2 -22 -16 7 -11 16 -38 46 -60 65 -28 24 -38 39 -32 48 6 11 18 3 48 -30
23 -24 44 -41 47 -37 13 13 11 110 -2 115 -7 3 -13 18 -13 34 0 16 -4 29 -10
29 -5 0 -10 -7 -10 -15 0 -8 -4 -15 -10 -15 -5 0 -10 6 -10 13 0 19 -40 49
-56 43 -9 -3 -12 -1 -9 4 3 6 -1 13 -9 16 -25 10 -19 24 12 25 23 2 24 2 5 6
-13 2 -23 11 -23 18 0 8 -8 19 -18 24 -19 10 -45 1 -43 -15 1 -5 -11 -11 -26
-12 -15 -2 -31 -9 -35 -15 -4 -6 -11 -8 -15 -3 -4 5 -2 11 5 13 22 8 12 23
-12 17 -13 -3 -33 -1 -44 5 -15 8 -23 8 -27 0 -5 -6 -22 -8 -49 -3 -22 4 -90
8 -151 9 -60 1 -220 5 -355 8 -135 3 -258 3 -274 -1z m294 -122 c0 -12 -28
-25 -36 -17 -9 9 6 27 22 27 8 0 14 -5 14 -10z m96 -12 c4 -6 -2 -19 -15 -29
l-21 -18 22 -3 c17 -2 25 -14 34 -52 15 -59 41 -96 78 -114 15 -8 26 -15 24
-17 -9 -10 -142 28 -160 45 -12 11 -27 20 -33 20 -7 0 -22 9 -35 20 -13 11
-28 20 -33 20 -6 0 -8 3 -4 6 3 4 0 13 -8 21 -23 22 -18 31 23 43 43 12 66 28
75 53 7 19 42 23 53 5z m67 -93 c12 -26 13 -33 3 -29 -11 4 -36 45 -36 59 0
17 19 -1 33 -30z m411 21 c12 5 16 0 16 -16 0 -12 11 -31 25 -42 14 -11 25
-23 25 -26 0 -4 -19 -13 -42 -21 -51 -16 -118 -30 -118 -24 0 20 45 103 56
103 8 0 14 5 14 10 0 6 -4 10 -10 10 -5 0 -10 5 -10 11 0 8 4 8 14 0 7 -6 21
-9 30 -5z m70 -42 c5 -13 4 -14 -7 -6 -8 7 -17 9 -20 5 -4 -3 -7 -1 -7 5 0 18
27 14 34 -4z"/>
<path d="M4655 6361 c-7 -12 12 -24 25 -16 11 7 4 25 -10 25 -5 0 -11 -4 -15
-9z"/>
<path d="M2982 6240 c0 -14 2 -19 5 -12 2 6 2 18 0 25 -3 6 -5 1 -5 -13z"/>
<path d="M6160 6232 c0 -4 -15 -12 -32 -18 -90 -32 -143 -55 -174 -79 -30 -23
-34 -24 -34 -8 -1 16 -2 16 -12 -2 -14 -24 -20 -135 -8 -150 5 -6 7 -21 3 -34
-5 -18 -10 -21 -33 -16 -16 3 -31 2 -34 -3 -9 -15 5 -51 23 -55 14 -4 14 -5
-1 -6 -28 -2 -21 -21 8 -21 19 0 25 4 20 15 -8 21 11 19 23 -2 8 -15 12 -16
22 -5 15 14 46 16 51 3 2 -4 41 -10 88 -13 47 -3 76 -2 65 2 -15 6 -11 8 17 7
20 -1 36 -6 35 -11 -1 -5 4 -11 11 -13 6 -3 12 0 12 7 0 7 6 8 19 0 11 -5 31
-10 45 -10 13 0 26 -4 28 -9 2 -5 16 -11 33 -13 24 -2 30 1 30 17 0 22 22 22
65 0 22 -12 63 -14 95 -5 6 1 27 2 49 1 28 -1 37 -5 33 -15 -4 -9 3 -16 19
-19 28 -5 29 -4 8 17 -21 21 4 22 32 1 26 -20 45 -19 37 3 -5 14 -3 15 8 5 18
-18 30 -16 22 3 -4 12 0 14 22 8 24 -6 27 -4 22 10 -5 13 1 16 38 16 34 0 48
5 57 20 7 11 21 20 30 20 10 0 22 9 28 19 7 13 17 18 32 14 19 -4 20 -3 8 7
-12 9 3 10 63 5 42 -4 77 -4 77 -2 0 3 -6 12 -13 19 -7 7 -17 28 -22 46 -9 31
-16 36 -85 58 -41 13 -88 25 -105 26 -16 1 -38 9 -49 17 -12 11 -35 15 -67 14
-35 -1 -49 3 -49 12 0 10 -14 12 -54 9 -33 -2 -57 0 -61 6 -4 7 -24 8 -52 4
-36 -5 -44 -4 -38 6 6 10 -3 12 -42 7 -36 -4 -56 -2 -69 8 -11 8 -28 15 -39
16 -41 2 29 17 87 18 56 1 85 15 51 25 -52 14 -251 26 -278 16 -11 -4 -30 -4
-42 1 -13 5 -23 5 -23 1z m-230 -152 c0 -5 -5 -10 -11 -10 -5 0 -7 5 -4 10 3
6 8 10 11 10 2 0 4 -4 4 -10z m117 4 c-3 -3 -12 -4 -19 -1 -8 3 -5 6 6 6 11 1
17 -2 13 -5z m646 -24 c3 -11 10 -20 15 -20 6 0 8 10 4 22 -4 16 -2 19 9 12 8
-4 25 -9 39 -10 47 -3 50 -4 50 -18 0 -8 11 -23 24 -33 18 -15 22 -23 14 -36
-5 -10 -7 -21 -4 -25 2 -4 -1 -14 -7 -22 -16 -21 -90 -70 -105 -70 -7 0 -12
-4 -12 -9 0 -5 -9 -7 -20 -4 -11 3 -26 0 -34 -6 -7 -6 -38 -10 -69 -9 l-55 2
43 38 c33 29 46 49 55 88 7 28 16 53 22 56 5 3 6 19 3 35 -5 22 -3 29 8 29 8
0 17 -9 20 -20z m-683 0 c0 -5 -4 -10 -10 -10 -5 0 -10 5 -10 10 0 6 5 10 10
10 6 0 10 -4 10 -10z m470 -34 c-14 -14 -24 0 -16 21 6 15 8 15 16 3 6 -9 5
-19 0 -24z m-540 14 c0 -5 -7 -10 -16 -10 -8 0 -12 5 -9 10 3 6 10 10 16 10 5
0 9 -4 9 -10z m265 0 c-3 -5 -11 -10 -16 -10 -6 0 -7 5 -4 10 3 6 11 10 16 10
6 0 7 -4 4 -10z m-240 -25 c-16 -14 -32 -20 -34 -14 -4 13 28 38 49 38 9 0 4
-9 -15 -24z m281 -2 c3 -16 12 -45 20 -66 19 -50 19 -50 -16 -43 -16 3 -43 9
-60 12 -16 3 -35 12 -41 20 -6 8 -18 14 -25 14 -21 0 -17 18 7 25 11 4 18 10
14 13 -5 5 67 47 87 51 4 0 10 -11 14 -26z m369 -13 c23 -9 25 -12 11 -25 -8
-8 -25 -15 -38 -14 -22 0 -22 1 -3 9 17 7 17 9 3 9 -18 1 -23 12 -11 24 8 9 7
9 38 -3z m-620 -62 c7 -7 2 -8 -15 -3 -14 4 -29 12 -35 17 -7 7 -2 8 15 3 14
-4 30 -12 35 -17z m80 -16 c-8 -9 -25 20 -18 31 3 5 10 2 15 -7 6 -10 7 -20 3
-24z m622 -88 c-3 -3 -12 -4 -19 -1 -8 3 -5 6 6 6 11 1 17 -2 13 -5z"/>
<path d="M6776 6027 c3 -10 9 -15 12 -12 3 3 0 11 -7 18 -10 9 -11 8 -5 -6z"/>
<path d="M6720 6024 c0 -9 41 -44 52 -44 13 0 10 5 -22 28 -16 13 -30 20 -30
16z"/>
<path d="M6570 6192 c0 -5 23 -8 51 -8 33 0 45 3 33 7 -26 10 -84 11 -84 1z"/>
<path d="M6730 6170 c-11 -7 -3 -10 30 -9 34 0 40 2 25 9 -27 12 -37 12 -55 0z"/>
<path d="M6818 6153 c7 -3 16 -2 19 1 4 3 -2 6 -13 5 -11 0 -14 -3 -6 -6z"/>
<path d="M6855 6150 c3 -5 8 -10 11 -10 2 0 4 5 4 10 0 6 -5 10 -11 10 -5 0
-7 -4 -4 -10z"/>
<path d="M6880 6151 c0 -17 26 -29 80 -36 30 -4 63 -14 72 -22 18 -16 51 -15
52 2 1 6 -9 11 -21 13 -13 2 -23 8 -23 13 0 6 -17 10 -37 8 -21 -1 -51 4 -68
10 -51 20 -55 21 -55 12z"/>
<path d="M4810 6020 c0 -11 5 -20 10 -20 6 0 10 9 10 20 0 11 -4 20 -10 20 -5
0 -10 -9 -10 -20z"/>
<path d="M4085 5990 c3 -5 8 -10 11 -10 2 0 4 5 4 10 0 6 -5 10 -11 10 -5 0
-7 -4 -4 -10z"/>
<path d="M4218 5993 c7 -3 16 -2 19 1 4 3 -2 6 -13 5 -11 0 -14 -3 -6 -6z"/>
<path d="M4450 5963 c-19 -8 -45 -16 -56 -18 -27 -3 -68 -31 -56 -39 17 -10
172 49 172 66 0 12 -20 9 -60 -9z"/>
<path d="M4460 5912 c0 -5 7 -15 15 -22 12 -10 19 -10 27 -2 14 14 11 17 -19
26 -13 4 -23 3 -23 -2z"/>
<path d="M4400 5892 c0 -5 -10 -14 -22 -20 -33 -15 3 -16 37 0 30 13 33 28 5
28 -11 0 -20 -4 -20 -8z"/>
<path d="M2962 5865 c0 -16 2 -22 5 -12 2 9 2 23 0 30 -3 6 -5 -1 -5 -18z"/>
<path d="M6160 5811 c0 -13 168 -93 183 -88 7 2 -30 25 -82 51 -102 50 -101
50 -101 37z"/>
<path d="M6380 5801 c0 -8 48 -21 74 -21 12 1 -51 30 -65 30 -5 0 -9 -4 -9 -9z"/>
<path d="M6484 5779 c-3 -5 11 -8 31 -7 19 1 35 5 35 9 0 10 -59 8 -66 -2z"/>
<path d="M2952 5735 c0 -16 2 -22 5 -12 2 9 2 23 0 30 -3 6 -5 -1 -5 -18z"/>
<path d="M6370 5710 c20 -13 33 -13 25 0 -3 6 -14 10 -23 10 -15 0 -15 -2 -2
-10z"/>
<path d="M2936 5603 c-7 -36 -6 -126 1 -119 6 6 14 146 8 146 -2 0 -6 -12 -9
-27z"/>
<path d="M2911 5389 c-6 -29 -10 -53 -9 -53 2 -1 11 -8 20 -15 16 -12 17 -8
17 53 -1 36 -4 66 -9 66 -5 0 -13 -23 -19 -51z"/>
<path d="M2916 5236 c1 -39 -2 -80 -6 -91 -8 -23 7 -87 24 -97 8 -6 8 -13 -1
-28 -18 -28 -16 -48 2 -24 15 18 16 18 14 -6 -1 -14 -1 -41 0 -60 1 -29 3 -32
12 -17 7 12 7 34 -1 70 -6 29 -11 94 -13 144 -1 51 -6 93 -11 93 -4 0 -6 15
-4 33 2 19 -1 38 -7 43 -7 7 -10 -12 -9 -60z"/>
<path d="M7496 5196 c3 -8 1 -30 -4 -49 -8 -29 -7 -35 4 -30 16 6 20 78 4 88
-5 3 -7 0 -4 -9z"/>
<path d="M7489 5089 c-2 -6 -7 -52 -15 -139 -6 -68 -6 -73 9 -59 11 12 16 39
18 103 1 47 -1 89 -5 93 -3 3 -7 4 -7 2z m-2 -151 c-3 -8 -6 -5 -6 6 -1 11 2
17 5 13 3 -3 4 -12 1 -19z"/>
<path d="M2930 4869 c0 -32 3 -40 10 -29 6 9 10 10 10 3 0 -6 3 -19 7 -29 3
-10 2 -15 -3 -12 -5 4 -8 -10 -6 -30 1 -21 3 -63 5 -95 1 -39 7 -61 17 -67 12
-8 13 -13 3 -28 -14 -23 -8 -145 7 -150 5 -2 10 -25 10 -50 0 -52 9 -92 19
-92 11 0 12 113 1 120 -6 4 -6 19 1 44 8 28 8 41 -1 46 -6 4 -10 27 -9 53 2
26 0 50 -4 53 -3 4 -2 16 4 27 6 10 7 17 2 14 -5 -3 -9 11 -10 31 0 83 -2 94
-18 88 -9 -3 -15 0 -15 9 0 8 4 15 8 15 8 0 -23 108 -34 119 -2 2 -4 -16 -4
-40z"/>
<path d="M7471 4844 c0 -11 3 -14 6 -6 3 7 2 16 -1 19 -3 4 -6 -2 -5 -13z"/>
<path d="M4678 4776 c-40 -10 -48 -28 -24 -52 19 -18 74 -15 81 5 4 11 8 12
13 4 10 -15 118 -54 167 -59 l40 -5 -53 51 c-29 27 -62 50 -72 50 -10 0 -21 4
-24 9 -8 12 -79 10 -128 -3z"/>
<path d="M7450 4730 c0 -11 4 -20 9 -20 5 0 7 9 4 20 -3 11 -7 20 -9 20 -2 0
-4 -9 -4 -20z"/>
<path d="M7435 4690 c-3 -5 -8 -22 -10 -37 -2 -16 -9 -41 -16 -58 -13 -30 -16
-42 -21 -81 -1 -14 -7 -20 -16 -16 -10 4 -13 0 -8 -14 3 -10 -6 -55 -19 -99
-14 -44 -28 -104 -31 -132 -7 -52 -16 -66 -28 -40 -3 6 -4 -1 -2 -18 5 -34
-14 -115 -27 -115 -5 0 -6 -14 -2 -31 8 -34 -12 -92 -27 -83 -5 4 -8 -2 -7
-12 2 -11 0 -25 -5 -33 -5 -8 -11 -30 -13 -50 -2 -23 -13 -44 -30 -59 -19 -17
-23 -26 -14 -35 16 -16 14 -37 -5 -37 -9 0 -14 -6 -11 -12 7 -19 -11 -60 -23
-53 -6 4 -10 -5 -10 -20 0 -16 -4 -24 -10 -20 -6 4 -8 15 -5 26 10 31 -9 21
-29 -15 -18 -34 -13 -74 5 -45 7 11 9 11 9 -1 0 -16 -34 -42 -62 -47 -11 -2
-18 3 -18 14 0 33 -12 3 -15 -38 -4 -51 -24 -77 -26 -34 -1 25 -2 26 -6 7 -6
-29 -28 -23 -27 7 1 38 -29 19 -39 -24 -12 -48 -16 -54 -27 -36 -6 11 -13 9
-33 -11 -13 -13 -27 -31 -30 -39 -4 -8 -5 6 -4 30 3 57 -22 77 -53 44 -11 -12
-20 -29 -20 -37 0 -8 -4 -17 -9 -20 -5 -3 -12 -21 -15 -39 -4 -19 -21 -48 -41
-67 -20 -19 -33 -40 -31 -47 3 -6 -11 -21 -30 -32 -25 -15 -34 -27 -34 -46 0
-20 -6 -27 -30 -31 -33 -7 -39 -20 -12 -27 16 -4 16 -5 0 -6 -10 0 -18 -6 -18
-13 0 -6 -7 -3 -15 8 -15 18 -15 18 -8 0 5 -14 3 -17 -6 -11 -8 4 -17 2 -21
-5 -6 -9 -11 -7 -19 9 -16 29 -3 50 16 26 10 -15 13 -15 13 -4 0 8 -4 19 -9
24 -5 6 -15 60 -21 120 -7 61 -15 121 -20 135 l-8 25 -1 -24 c-1 -38 -14 -16
-16 29 -2 42 9 55 18 20 3 -11 11 -20 17 -20 10 0 10 3 0 15 -9 11 -9 19 -2
28 6 7 8 23 5 36 -5 20 -3 22 16 16 19 -6 21 -3 21 28 0 20 6 37 12 39 9 3 8
11 -5 31 -18 28 -13 61 9 53 16 -6 18 3 5 23 -6 9 -5 21 2 32 8 13 7 45 -6
126 -9 59 -17 120 -17 134 0 14 -9 34 -20 44 -12 10 -19 24 -16 31 3 7 -4 16
-15 19 -10 4 -19 12 -19 19 0 17 -56 66 -75 66 -9 0 -18 7 -22 16 -4 11 -13
14 -32 9 -18 -4 -22 -3 -12 4 12 8 13 14 2 37 -9 21 -14 25 -21 15 -4 -8 -15
-11 -24 -8 -10 4 -16 1 -16 -7 0 -8 4 -16 9 -18 4 -1 12 -14 16 -28 7 -23 6
-23 -19 7 -17 20 -33 30 -42 26 -13 -5 -13 -7 -2 -14 8 -6 9 -9 1 -9 -20 0
-43 12 -38 20 3 5 -9 11 -27 15 -18 4 -41 14 -50 22 -15 13 -20 13 -33 3 -13
-11 -18 -10 -30 6 -14 18 -14 18 -15 -6 -1 -27 -2 -26 -45 33 -17 24 -76 30
-67 7 5 -13 3 -13 -10 -2 -9 7 -14 21 -11 32 3 12 -1 22 -11 26 -9 3 -16 12
-16 18 0 7 -11 18 -25 24 -32 15 -35 15 -35 2 0 -5 9 -10 21 -10 11 0 17 -4
14 -10 -3 -5 -1 -19 5 -31 7 -11 10 -23 7 -25 -6 -7 -37 7 -37 16 0 15 -60 71
-69 65 -6 -3 -15 4 -22 16 -7 14 -14 18 -18 10 -5 -7 -12 -2 -21 14 -17 32
-46 29 -42 -4 2 -20 0 -22 -12 -12 -8 7 -41 14 -73 16 -32 3 -60 5 -63 6 -3 1
-8 1 -13 0 -4 -1 -5 10 -1 24 7 27 -12 35 -34 13 -6 -6 -19 -13 -29 -14 -9 -2
-28 -6 -42 -10 -32 -8 -126 -7 -164 2 -31 7 -107 75 -107 95 0 8 -4 8 -15 -1
-13 -10 -15 -9 -15 11 l-1 24 -20 -24 c-18 -22 -19 -25 -3 -42 10 -11 23 -19
30 -19 20 0 27 -19 13 -36 -6 -8 -8 -18 -4 -22 4 -4 10 -1 12 6 7 17 30 15 37
-4 9 -23 8 -24 -18 -24 -14 0 -28 -5 -31 -10 -10 -16 -35 8 -35 31 0 26 -14
24 -29 -3 -11 -22 -11 -22 -8 -2 4 17 0 20 -14 17 -10 -3 -24 -11 -30 -19 -6
-8 -16 -14 -22 -14 -7 0 -7 4 1 12 19 19 14 29 -8 16 -12 -7 -35 -35 -52 -61
-17 -26 -33 -45 -36 -42 -3 2 2 13 11 23 16 18 23 42 12 42 -3 0 -14 -9 -25
-20 -22 -22 -50 -17 -50 9 1 14 2 14 14 -2 12 -16 14 -16 20 -1 9 22 8 24 -9
24 -8 0 -15 4 -15 9 0 16 -50 22 -73 9 -12 -7 -25 -12 -29 -13 -4 0 -15 -10
-23 -22 -9 -13 -23 -23 -31 -23 -20 0 -18 -18 4 -23 16 -4 16 -5 0 -6 -10 0
-18 -7 -18 -14 0 -7 -9 -18 -21 -25 -19 -12 -19 -11 -9 8 6 12 9 24 6 28 -3 3
-6 0 -6 -7 0 -7 -5 -9 -10 -6 -6 4 -9 3 -8 -2 2 -4 -5 -19 -15 -33 -13 -19
-17 -21 -17 -7 0 9 5 17 10 17 6 0 10 5 10 11 0 8 -6 7 -16 -2 -9 -7 -41 -14
-71 -15 -50 -2 -53 -1 -34 13 12 8 21 18 21 22 0 10 -56 9 -66 -2 -11 -11 -24
-8 -24 6 0 17 -49 20 -67 5 -11 -9 -17 -9 -24 3 -7 11 -9 11 -9 -4 0 -10 -11
-22 -24 -27 -13 -5 -26 -15 -28 -22 -3 -7 -13 -13 -24 -13 -10 0 -23 -10 -29
-22 -5 -12 -19 -24 -30 -25 -11 -2 -19 -9 -18 -16 2 -6 -2 -12 -7 -12 -6 0
-10 4 -10 10 0 5 -7 7 -16 3 -8 -3 -13 -12 -10 -19 3 -8 1 -14 -5 -14 -5 0 -7
-11 -5 -25 3 -17 0 -25 -10 -25 -8 0 -15 -3 -15 -7 -1 -5 -3 -21 -5 -36 -1
-15 -13 -36 -25 -46 -17 -13 -23 -30 -25 -74 -2 -31 -11 -71 -20 -88 -12 -25
-14 -37 -5 -56 6 -13 12 -38 12 -56 l1 -32 8 30 c5 20 8 24 9 10 1 -17 3 -18
11 -5 8 13 10 12 10 -2 0 -10 -4 -18 -10 -18 -5 0 -7 -13 -3 -30 3 -17 1 -30
-5 -30 -14 0 -22 -54 -9 -62 9 -6 9 -8 0 -8 -7 0 -13 -7 -13 -15 0 -8 4 -15 8
-15 4 0 8 -9 9 -20 1 -11 -3 -20 -8 -20 -6 0 -8 -4 -5 -9 3 -4 -3 -19 -14 -31
-16 -18 -17 -26 -8 -37 9 -11 9 -16 -3 -23 -11 -7 -11 -12 -1 -22 10 -10 14
-8 18 10 7 26 34 30 34 5 0 -14 -2 -15 -9 -5 -6 10 -10 3 -15 -23 -4 -20 -17
-46 -28 -57 -13 -13 -17 -23 -11 -25 13 -5 -29 -53 -45 -53 -6 0 -13 -6 -16
-12 -3 -9 -14 -3 -30 17 -19 22 -26 41 -26 73 0 23 -4 42 -9 42 -5 0 -8 -35
-6 -77 2 -69 -11 -80 -15 -13 -1 23 -2 24 -11 5 -8 -17 -9 -16 -5 8 2 15 -1
30 -5 33 -14 8 -10 24 6 24 8 0 15 5 15 10 0 6 -4 10 -10 10 -5 0 -7 7 -3 16
5 14 1 16 -21 12 -23 -5 -27 -3 -23 13 3 11 1 19 -4 19 -5 0 -9 -6 -9 -12 0
-8 -5 -6 -11 4 -6 11 -16 15 -26 11 -10 -4 -14 -2 -10 4 4 5 -2 27 -12 47
l-19 36 -10 -37 -10 -38 -2 35 -2 35 -7 -30 -7 -30 -7 28 c-4 15 -12 25 -17
22 -6 -3 -10 -1 -10 6 0 8 -4 8 -15 -1 -8 -7 -16 -9 -16 -4 -3 21 -6 31 -17
57 -7 16 -12 35 -12 43 0 8 -4 14 -10 14 -5 0 -10 9 -10 19 0 21 -14 34 -42
38 -21 3 -32 -28 -23 -66 3 -16 2 -32 -4 -35 -16 -10 -24 77 -13 130 6 27 9
50 7 52 -10 10 -26 -12 -23 -31 1 -12 -5 -37 -14 -55 -20 -39 -15 -85 14 -121
10 -13 18 -31 18 -39 0 -23 -37 13 -45 45 -3 15 -11 23 -19 20 -8 -3 -18 5
-24 18 -8 17 -8 25 0 27 7 3 3 13 -10 26 -12 12 -22 27 -22 32 0 6 -4 10 -8
10 -4 0 -9 8 -10 18 -11 104 -35 138 -30 42 2 -45 -1 -64 -10 -67 -9 -4 -11 2
-7 19 7 27 -21 102 -35 93 -6 -4 -10 11 -10 34 0 24 -5 41 -11 41 -8 0 -8 4
-1 13 7 8 6 17 -3 30 -10 14 -14 15 -18 5 -3 -7 -7 7 -8 32 -1 25 -3 54 -4 65
-1 11 -3 28 -4 38 0 10 -5 15 -11 12 -6 -4 -10 6 -10 23 0 16 -9 37 -20 47
-20 18 -28 41 -10 30 14 -8 34 75 21 88 -7 7 -12 -3 -17 -31 -7 -47 -11 -50
-30 -24 -12 15 -13 13 -14 -21 0 -24 5 -40 15 -43 8 -4 15 -14 15 -24 0 -10 5
-31 11 -47 7 -15 11 -40 10 -55 -2 -19 2 -28 12 -28 10 0 14 -11 13 -40 0 -25
5 -44 13 -49 7 -5 15 -17 16 -27 5 -52 19 -104 26 -104 5 0 9 -12 9 -27 0 -38
11 -74 20 -68 4 2 7 -12 8 -32 1 -20 5 -39 10 -42 4 -3 14 -32 21 -63 7 -32
17 -60 22 -63 5 -4 9 -19 9 -35 0 -16 7 -36 16 -44 20 -20 9 -56 -17 -56 -10
0 -19 -7 -19 -15 0 -8 7 -15 15 -15 8 0 15 -4 15 -10 0 -5 -11 -10 -24 -10
-14 0 -36 -4 -50 -10 -21 -8 -26 -16 -26 -45 0 -24 5 -35 15 -35 22 0 18 -38
-5 -45 -27 -8 -27 -45 0 -45 26 0 25 -14 -1 -39 -23 -21 -42 -80 -40 -125 0
-17 -6 -38 -15 -47 -12 -13 -13 -22 -5 -38 15 -28 14 -31 -11 -31 l-23 0 22
-18 c25 -19 22 -62 -3 -62 -8 0 -14 -7 -14 -15 0 -8 -4 -15 -10 -15 -14 0 -13
-36 1 -59 15 -23 3 -71 -17 -71 -8 0 -13 -4 -10 -8 12 -19 17 -112 6 -112 -6
0 -8 -5 -5 -11 4 -6 14 -8 22 -5 12 5 13 0 8 -24 -4 -19 -3 -30 5 -30 14 0 2
-72 -13 -82 -7 -4 -7 -11 1 -21 7 -7 9 -17 5 -20 -3 -4 8 -7 25 -7 24 0 30 -4
26 -15 -4 -8 -15 -15 -25 -15 -23 0 -25 -23 -4 -44 19 -19 19 -25 -1 -66 -16
-31 -16 -34 1 -46 17 -12 17 -15 2 -38 -16 -23 -16 -25 3 -31 28 -9 28 -55 0
-55 -19 0 -48 -46 -36 -57 8 -9 26 8 26 23 0 10 8 14 23 12 13 -2 21 -9 19
-18 -2 -8 -4 -32 -4 -52 1 -21 -3 -38 -9 -38 -5 0 -9 12 -9 26 0 16 -5 24 -12
21 -7 -2 -12 -14 -11 -26 2 -13 -3 -21 -12 -21 -8 0 -15 -9 -15 -20 0 -11 -4
-20 -10 -20 -5 0 -10 -8 -10 -19 0 -10 -8 -21 -18 -23 -12 -4 -23 -21 -30 -50
-7 -25 -15 -54 -19 -64 -6 -18 -6 -18 15 0 12 11 33 21 47 22 21 2 25 -2 25
-22 0 -13 -4 -24 -10 -24 -5 0 -10 -9 -10 -19 0 -11 -5 -23 -10 -26 -6 -3 -7
-18 -4 -33 5 -21 4 -25 -6 -15 -7 6 -13 23 -12 37 0 22 -3 24 -15 14 -10 -8
-11 -14 -4 -16 14 -5 15 -82 1 -82 -16 0 -60 -53 -55 -67 2 -7 -2 -10 -11 -6
-7 3 -14 0 -14 -6 0 -12 41 -15 56 -4 5 5 1 0 -9 -9 -11 -10 -15 -18 -11 -18
5 0 -3 -11 -19 -24 -19 -16 -25 -29 -20 -41 4 -12 3 -16 -4 -12 -7 5 -9 0 -6
-13 4 -15 0 -20 -16 -20 -11 0 -21 -4 -21 -9 0 -4 -11 -20 -25 -35 -14 -15
-25 -31 -25 -36 0 -5 -16 -12 -35 -16 -19 -3 -40 -14 -45 -23 -7 -12 -9 -9
-10 17 0 19 -4 31 -10 27 -5 -3 -7 -12 -3 -21 3 -8 -2 -23 -12 -34 -12 -14
-16 -28 -12 -49 4 -17 2 -33 -3 -36 -15 -9 -2 -25 20 -25 29 0 32 -27 4 -49
-26 -20 -24 -47 2 -37 20 8 17 -11 -5 -30 -10 -9 -16 -24 -14 -34 3 -10 -5
-28 -17 -40 -17 -17 -19 -25 -10 -33 13 -14 37 13 72 78 11 22 31 54 44 70 31
41 47 110 28 126 -12 9 -14 4 -14 -29 0 -23 -4 -43 -8 -46 -5 -3 -9 0 -9 7 0
7 -3 27 -7 44 -6 26 -4 33 7 33 8 0 23 12 32 27 10 14 32 40 49 58 31 31 78
97 104 145 7 13 20 31 28 40 8 8 28 31 44 50 27 32 30 33 30 13 0 -13 -9 -28
-20 -35 -11 -7 -20 -18 -20 -25 0 -6 -8 -18 -17 -25 -10 -7 -27 -29 -37 -48
-10 -19 -28 -45 -39 -57 -17 -19 -18 -23 -5 -23 16 0 128 119 139 148 4 10 21
32 38 49 17 18 31 37 31 43 0 19 15 10 57 -35 23 -25 45 -45 50 -45 11 0 103
-88 170 -162 29 -32 56 -58 61 -58 5 0 12 -12 15 -27 4 -19 17 -33 39 -43 23
-10 34 -23 36 -40 2 -19 13 -30 42 -43 22 -9 40 -23 40 -30 0 -7 14 -27 30
-45 17 -18 30 -37 30 -42 0 -5 9 -12 21 -15 11 -4 25 -20 31 -36 6 -17 13 -28
15 -25 8 8 33 -21 33 -38 0 -9 7 -16 16 -16 11 0 14 -5 10 -16 -4 -10 3 -23
16 -34 21 -17 21 -18 5 -43 -9 -15 -17 -32 -17 -39 1 -7 8 0 16 15 18 34 31
28 40 -19 8 -42 31 -57 62 -40 21 11 21 12 4 27 -10 8 -23 14 -30 11 -8 -2
-12 9 -12 32 0 20 -5 36 -10 36 -6 0 -15 10 -20 22 -11 24 -23 47 -52 90 -9
14 -19 37 -22 50 -2 13 -18 52 -36 88 -20 42 -32 83 -34 115 -1 40 -5 50 -18
49 -13 -1 -16 4 -12 26 4 17 0 32 -11 43 -11 12 -12 17 -4 17 8 0 7 4 -4 13
-9 6 -19 27 -22 46 -3 18 -16 47 -29 65 -13 17 -34 54 -47 81 -13 28 -28 55
-35 60 -12 11 -64 234 -64 278 0 15 -5 36 -10 47 -5 11 -14 29 -20 40 -5 11
-10 27 -10 35 0 8 -4 15 -9 15 -5 0 -11 23 -15 50 -4 28 -10 50 -15 50 -5 0
-11 18 -15 40 -3 22 -11 40 -16 40 -6 0 -10 5 -10 11 0 5 5 7 10 4 6 -4 10 5
10 19 0 14 -4 26 -10 26 -5 0 -10 15 -10 34 0 19 -5 36 -12 38 -8 3 -12 26
-13 64 0 32 -5 62 -11 66 -6 4 -12 45 -13 97 -1 76 1 91 16 100 14 7 17 21 15
61 -2 44 0 51 15 48 10 -1 20 2 23 7 3 6 -4 10 -15 10 -22 0 -37 41 -23 68 5
9 6 21 3 26 -3 5 -1 20 4 33 l10 23 0 -23 c1 -30 21 -18 21 12 0 12 5 27 11
33 6 6 8 17 4 23 -6 9 -10 9 -17 -1 -8 -11 -9 -10 -5 3 3 9 9 34 13 55 3 21
11 43 18 48 6 6 11 24 12 40 0 23 5 30 20 28 10 -1 22 4 26 10 5 7 8 -1 8 -18
0 -16 5 -37 10 -45 7 -11 10 -7 11 20 2 30 3 31 6 8 3 -18 9 -25 19 -21 9 3
14 -2 14 -16 0 -14 6 -21 19 -21 13 0 23 -11 31 -35 6 -19 20 -41 30 -48 12
-8 21 -31 26 -63 3 -27 10 -56 16 -64 7 -11 8 -6 4 18 -6 33 7 45 18 16 3 -8
10 -13 15 -10 12 8 26 -11 42 -57 16 -45 47 -78 34 -37 -5 18 9 7 54 -40 110
-116 135 -140 150 -140 10 0 8 7 -9 25 -13 14 -21 28 -18 31 10 9 48 -29 48
-47 0 -9 9 -19 21 -22 11 -3 23 -15 26 -27 4 -13 8 -17 13 -11 10 17 32 5 60
-34 14 -19 30 -35 36 -35 5 0 20 -9 31 -19 12 -11 23 -17 27 -14 3 3 19 -6 36
-21 17 -14 36 -26 41 -26 16 0 38 -25 50 -56 8 -23 12 -25 19 -14 8 12 14 10
34 -15 13 -16 29 -31 35 -31 6 -1 18 -2 27 -3 8 0 13 -5 10 -10 -3 -5 1 -15
10 -22 11 -9 14 -22 10 -41 -3 -18 -2 -27 4 -23 6 3 10 12 10 20 0 7 6 15 13
18 9 3 8 8 -3 22 -13 16 -13 18 0 13 8 -2 17 -19 21 -36 7 -35 25 -62 42 -62
6 0 19 7 29 17 11 9 18 11 18 5 0 -7 -6 -12 -12 -13 -25 -1 27 -18 58 -18 29
-1 74 -38 74 -61 0 -5 9 -24 21 -42 l21 -33 -4 32 c-4 28 -2 31 14 22 10 -5
18 -15 19 -22 1 -7 5 -1 9 13 5 16 8 19 9 8 1 -10 10 -22 21 -28 13 -7 20 -21
20 -42 0 -46 10 -28 12 21 1 42 2 43 31 37 16 -3 36 -6 43 -6 8 0 14 -5 14
-11 0 -14 21 -34 38 -35 27 -2 31 -5 35 -21 3 -11 5 -6 7 12 l2 30 9 -26 c6
-15 19 -29 30 -32 29 -8 173 5 159 13 -9 5 -9 10 -1 14 6 4 16 -2 23 -14 10
-15 23 -20 60 -20 26 0 50 -5 53 -10 3 -5 20 -10 36 -10 17 0 39 -5 50 -10 24
-13 25 -2 2 16 -17 12 -16 13 5 14 12 0 25 -7 28 -15 8 -20 64 -20 64 0 0 13
-4 14 -20 5 -18 -10 -20 -8 -20 19 0 22 7 32 33 45 17 9 39 20 47 25 46 24 83
41 91 41 15 0 10 -32 -8 -52 -9 -10 -11 -18 -5 -18 6 0 22 15 36 33 24 29 24
33 9 44 -9 7 -14 15 -11 19 4 3 16 -4 27 -15 12 -12 21 -18 21 -15 0 4 7 1 15
-6 13 -11 15 -8 15 13 0 14 -4 29 -10 32 -5 3 -10 15 -10 26 0 15 5 19 19 14
24 -7 51 22 32 35 -10 5 -10 9 -1 15 8 5 6 11 -7 22 -17 14 -17 14 1 8 14 -4
26 2 42 22 13 15 23 23 24 16 0 -6 -5 -15 -10 -18 -6 -4 -7 -11 -4 -17 4 -6
10 -5 15 3 8 12 10 12 18 0 7 -10 11 -5 16 18 4 18 18 44 31 58 14 15 24 34
22 42 -1 9 4 27 11 40 13 24 14 24 27 6 8 -10 14 -14 14 -8 0 13 40 59 50 56
4 -1 11 9 14 22 4 14 13 25 21 25 8 0 15 4 15 8 0 9 60 35 78 33 6 -1 12 5 12
14 0 8 7 15 15 15 8 0 15 7 15 16 0 9 6 14 13 11 7 -2 11 -18 10 -38 -2 -32
-1 -32 8 -10 5 14 7 31 5 38 -3 7 1 13 9 13 8 0 27 17 42 37 45 60 61 76 72
69 6 -4 23 6 38 21 15 16 45 36 66 46 20 9 37 23 37 32 0 8 9 15 20 15 12 0
25 10 32 25 12 27 31 35 22 10 -8 -19 3 -19 22 0 9 9 13 24 10 37 -3 13 -3 17
0 9 5 -10 13 -6 31 15 22 25 24 26 19 7 -4 -12 -2 -24 4 -28 8 -5 6 -15 -5
-32 -9 -13 -14 -32 -11 -40 4 -9 -3 -31 -14 -50 -11 -19 -20 -42 -20 -52 0
-10 -7 -24 -15 -31 -8 -7 -13 -16 -10 -20 3 -4 -2 -13 -10 -20 -8 -7 -13 -16
-10 -19 7 -12 -10 -66 -21 -65 -17 2 -31 -31 -38 -89 l-8 -59 34 6 c29 6 31 5
16 -7 -10 -8 -18 -22 -18 -31 0 -24 -27 -73 -44 -79 -8 -3 -12 -14 -10 -25 3
-10 -2 -24 -10 -31 -9 -8 -16 -22 -16 -32 0 -15 -7 -19 -36 -19 -21 0 -33 -4
-29 -10 3 -6 15 -10 26 -10 14 0 19 -7 19 -30 0 -25 -4 -30 -24 -30 -17 0 -23
-5 -22 -18 0 -9 -5 -16 -12 -14 -7 1 -16 -8 -21 -20 -5 -13 -34 -47 -66 -77
-49 -47 -56 -58 -51 -83 4 -21 2 -28 -9 -28 -8 0 -15 -8 -15 -19 0 -14 -6 -17
-25 -13 -29 5 -32 -4 -8 -30 15 -17 15 -18 -10 -18 -19 0 -25 4 -21 15 8 20
-10 19 -27 -2 -10 -11 -10 -14 -1 -9 8 5 12 0 12 -15 0 -17 -3 -19 -14 -10
-21 18 -66 -6 -66 -36 0 -18 -5 -23 -26 -23 -22 0 -24 -3 -15 -14 10 -12 8
-17 -9 -26 -17 -9 -19 -14 -9 -26 9 -11 8 -14 -5 -14 -10 0 -16 -9 -16 -25 0
-23 -4 -25 -40 -25 l-40 0 6 -42 c4 -34 3 -40 -6 -28 -10 12 -11 10 -6 -10 3
-14 6 -28 6 -32 0 -17 30 -7 44 14 16 22 16 22 16 2 0 -19 5 -21 50 -16 41 4
50 2 50 -12 0 -24 17 -19 24 8 5 21 21 31 79 50 9 3 17 12 17 21 0 8 9 15 20
15 13 0 20 7 20 20 0 30 46 27 54 -2 9 -35 8 -38 -14 -38 -11 0 -20 -7 -20
-15 0 -9 -16 -23 -35 -32 -19 -9 -35 -23 -35 -30 0 -15 9 -16 29 -4 11 7 18 3
26 -12 13 -24 7 -47 -6 -26 -7 11 -11 11 -21 -2 -7 -9 -19 -19 -27 -21 -9 -3
-2 -12 22 -27 20 -12 37 -28 37 -34 0 -7 -4 -6 -10 3 -7 12 -12 12 -22 2 -10
-10 -10 -15 2 -22 12 -7 11 -10 -5 -15 -38 -12 -50 -22 -53 -44 -2 -15 -10
-21 -28 -21 -14 0 -23 -4 -20 -9 3 -5 15 -7 26 -4 11 3 20 0 20 -6 0 -6 -6
-11 -14 -11 -7 0 -17 -10 -20 -22 l-6 -23 -15 25 c-14 25 -14 25 -15 -17 0
-33 -3 -41 -15 -37 -10 4 -15 0 -15 -13 0 -23 -32 -63 -49 -63 -11 0 -36 -48
-32 -63 1 -5 -7 -6 -18 -2 -13 4 -20 0 -24 -15 -3 -11 -11 -19 -19 -18 -8 2
-13 -7 -14 -22 -2 -49 -17 -115 -28 -122 -8 -6 -7 -8 2 -8 6 0 12 -4 12 -10 0
-5 -7 -10 -15 -10 -8 0 -14 -3 -13 -7 5 -19 -35 -112 -56 -133 -14 -12 -27
-34 -31 -48 -3 -14 -15 -38 -26 -53 -10 -15 -20 -49 -22 -76 -3 -34 -11 -57
-26 -72 -11 -11 -21 -25 -21 -31 0 -5 -7 -10 -15 -10 -8 0 -15 -5 -15 -11 0
-5 -10 -9 -22 -7 -18 2 -22 -1 -20 -16 6 -33 -18 -72 -58 -95 -44 -25 -100
-74 -100 -89 0 -6 -6 -13 -12 -15 -7 -3 278 -6 634 -6 482 -1 654 2 673 11 20
9 31 9 45 0 16 -10 18 -9 14 2 -3 8 4 19 16 26 12 7 19 18 16 26 -4 10 2 14
19 14 14 0 25 3 25 8 0 4 27 24 60 46 37 24 62 47 66 62 3 13 10 24 14 24 14
0 80 63 80 77 0 7 5 13 10 13 6 0 10 -4 10 -10 0 -5 5 -10 11 -10 7 0 9 11 6
29 -5 24 -2 31 13 36 12 4 17 12 13 21 -4 10 2 17 16 21 11 3 21 12 21 19 0 8
7 14 15 14 8 0 21 12 29 28 8 15 26 38 40 51 14 14 26 28 26 32 0 5 11 19 25
33 14 14 25 35 25 48 0 19 2 20 10 8 8 -12 10 -11 10 6 0 13 8 24 20 27 25 6
26 34 3 40 -12 3 -8 5 9 6 21 1 31 10 50 49 29 61 53 93 63 84 4 -4 4 3 1 16
-5 15 -3 22 6 22 7 0 28 23 47 50 18 28 37 50 41 50 4 0 6 12 4 27 -4 37 12
63 39 63 17 0 28 13 50 58 15 31 27 69 27 84 0 18 9 33 30 48 17 12 30 27 30
34 0 7 10 26 22 42 13 15 23 35 23 44 0 8 10 19 23 25 12 5 22 15 22 22 0 7 9
13 20 13 13 0 18 5 14 15 -4 8 -1 22 6 30 6 8 10 20 7 27 -2 7 5 23 17 36 15
17 21 37 21 69 0 31 6 49 18 58 9 7 17 21 17 31 0 10 7 33 16 49 19 36 24 70
27 190 2 50 9 100 16 113 10 19 9 23 -4 28 -19 8 -20 33 0 40 14 6 13 8 -2 19
-15 11 -18 29 -18 108 0 57 -5 99 -12 108 -6 8 -15 27 -19 44 -6 26 -8 27 -15
10 -5 -15 -8 -8 -8 23 -1 23 -6 42 -12 42 -5 0 -7 5 -4 10 3 6 -1 10 -9 10 -9
0 -16 5 -16 10 0 6 5 10 10 10 6 0 10 5 10 10 0 6 -9 10 -20 10 -11 0 -20 -6
-20 -12 0 -9 -3 -8 -10 2 -7 12 -13 6 -25 -24 -13 -30 -15 -55 -10 -110 5 -56
3 -81 -9 -111 -11 -26 -13 -41 -6 -43 14 -5 14 -162 -1 -162 -5 0 -7 -5 -4
-10 4 -6 2 -17 -5 -25 -8 -9 -8 -15 0 -20 7 -4 2 -16 -15 -32 -28 -28 -31 -43
-13 -61 9 -9 9 -12 0 -12 -7 0 -12 -16 -12 -40 0 -22 -4 -40 -10 -40 -5 0 -10
-8 -10 -17 0 -10 -10 -46 -22 -80 -15 -45 -27 -63 -42 -66 -21 -4 -20 -5 2
-12 25 -8 29 -20 7 -29 -8 -3 -15 -12 -15 -21 0 -9 -9 -15 -25 -15 -14 0 -25
-4 -25 -10 0 -5 5 -10 10 -10 6 0 10 -9 10 -19 0 -11 -4 -23 -10 -26 -5 -3
-10 0 -10 7 0 9 -3 9 -10 -2 -6 -10 -4 -22 6 -37 13 -21 12 -25 -6 -43 -11
-11 -24 -20 -30 -20 -6 0 -10 -6 -10 -14 0 -8 -7 -16 -15 -20 -9 -3 -15 -18
-15 -36 0 -30 -24 -43 -32 -18 -6 16 -28 0 -28 -20 0 -10 -11 -33 -24 -53 -14
-20 -28 -53 -32 -75 -7 -40 -76 -139 -97 -139 -7 0 -13 12 -15 27 -2 16 -7 28
-12 28 -13 0 0 38 16 44 8 3 14 12 14 21 0 8 7 15 15 15 9 0 12 6 8 16 -3 8 4
28 16 44 11 16 21 38 21 49 0 11 5 23 11 26 6 4 8 13 5 21 -3 8 3 22 13 30 15
13 17 24 11 56 -7 35 -5 41 11 45 13 4 19 14 19 34 0 15 4 30 9 33 5 3 9 23 9
45 1 42 24 105 49 133 14 16 14 22 3 43 -10 20 -11 28 -2 37 9 9 12 6 13 -13
1 -16 4 -10 9 16 5 22 6 51 4 65 -4 23 -3 23 6 5 9 -18 10 -17 7 7 -3 16 0 25
5 22 6 -4 7 -23 4 -43 -5 -30 -4 -32 4 -12 6 13 12 47 13 74 2 28 9 53 15 55
7 2 12 26 12 63 0 42 4 58 13 57 7 -2 13 9 15 25 2 16 -1 27 -9 27 -9 0 -8 4
1 15 7 8 10 26 8 40 -3 14 -2 25 2 25 11 0 33 57 26 68 -3 5 1 32 9 58 17 58
19 126 4 141 -6 6 -11 34 -11 62 1 38 -3 51 -14 51 -21 0 -17 16 8 27 20 9 20
10 -11 22 -17 8 -30 19 -29 25 3 12 -48 66 -62 66 -6 0 -10 -4 -10 -10 0 -5 6
-10 13 -10 10 0 16 -26 21 -101 3 -55 4 -105 1 -110 -3 -4 -10 -48 -15 -96
-13 -119 -14 -124 -44 -238 -14 -55 -31 -102 -36 -103 -6 -2 -8 -7 -5 -12 3
-5 -1 -32 -10 -62 -33 -120 -54 -188 -61 -200 -4 -7 -11 -30 -15 -53 -13 -65
-33 -138 -47 -162 -6 -12 -12 -27 -12 -33 0 -6 -9 -30 -20 -52 -11 -23 -20
-54 -20 -69 0 -14 -7 -32 -15 -39 -8 -7 -13 -16 -10 -20 8 -13 -16 -74 -37
-93 -11 -9 -16 -17 -10 -17 12 0 -2 -58 -18 -74 -5 -5 -10 -15 -10 -21 0 -5 5
-3 11 5 8 11 9 9 4 -10 -15 -56 -38 -98 -52 -93 -7 3 -13 1 -13 -5 0 -6 5 -12
11 -14 9 -3 9 -13 1 -38 -5 -19 -13 -48 -17 -64 -5 -23 -9 -26 -15 -16 -7 11
-11 3 -16 -28 -4 -23 -10 -42 -15 -42 -5 0 -9 -9 -9 -20 0 -11 -8 -24 -17 -27
-10 -4 -25 -13 -33 -21 -12 -13 -11 -17 9 -33 27 -22 21 -38 -14 -31 -20 3
-25 1 -22 -14 1 -11 6 -24 10 -30 10 -17 -19 -25 -33 -9 -8 10 -8 14 2 18 8 4
7 6 -4 6 -10 1 -18 -4 -18 -10 0 -5 -5 -7 -11 -3 -8 4 -8 0 0 -15 7 -11 22
-21 34 -22 20 -1 20 -2 -6 -13 -15 -7 -24 -16 -20 -21 5 -4 3 -5 -3 -2 -7 4
-15 19 -18 34 -21 89 -31 113 -49 113 -14 0 -17 -4 -12 -17 4 -10 10 -27 13
-38 3 -11 11 -24 19 -28 7 -4 13 -20 12 -35 0 -15 -3 -21 -6 -14 -4 10 -8 10
-19 1 -11 -9 -15 -8 -20 5 -8 20 -24 21 -24 2 0 -7 10 -17 23 -20 21 -6 21 -7
5 -20 -20 -14 -24 -36 -8 -36 6 0 10 5 10 11 0 11 25 39 35 39 8 0 35 -26 35
-34 0 -2 -8 -7 -17 -9 -15 -4 -15 -5 2 -6 15 -1 16 -4 7 -10 -21 -13 -4 -64
19 -58 12 3 19 0 19 -8 0 -7 -8 -12 -17 -10 -10 1 -24 -2 -30 -7 -14 -11 -16
-6 -27 44 -4 16 -10 27 -14 26 -4 -1 -17 3 -29 10 -21 12 -22 19 -20 100 2 63
-1 90 -11 97 -7 6 -16 31 -20 55 -5 39 -7 42 -13 20 -7 -25 -7 -25 -8 -2 -1
13 -5 20 -11 17 -12 -7 -13 25 -2 41 4 6 15 13 25 17 10 4 15 12 12 17 -5 8
-11 8 -19 1 -14 -12 -36 4 -36 26 0 7 -11 13 -27 13 -26 0 -26 1 -7 15 10 8
27 15 37 15 17 0 17 1 3 16 -11 10 -28 14 -56 11 -29 -3 -40 0 -40 9 0 13 24
19 64 14 11 -1 15 3 12 9 -4 7 1 11 13 11 11 0 23 5 26 10 4 6 12 4 22 -6 17
-17 10 -29 -22 -38 -12 -3 -9 -4 8 -2 17 2 27 -1 27 -10 0 -7 4 -15 10 -19 5
-3 8 8 6 27 -6 56 -18 88 -32 88 -8 0 -14 9 -14 21 0 12 -4 17 -11 13 -6 -3
-8 -15 -6 -26 4 -14 1 -18 -11 -16 -10 2 -16 11 -14 21 4 22 -15 22 -21 0 -4
-15 -5 -15 -6 2 -1 18 -2 18 -17 -4 -13 -18 -18 -20 -25 -10 -16 25 -9 39 16
39 22 0 24 3 15 19 -5 11 -10 29 -10 40 0 25 -17 27 -41 6 -15 -15 -17 -14
-23 11 -4 15 -14 33 -23 39 -13 10 -14 17 -5 41 6 16 11 22 11 13 1 -24 37
-30 55 -10 22 25 21 55 -1 47 -11 -4 -8 2 7 14 30 24 44 26 36 4 -3 -9 -2 -12
5 -9 6 4 7 20 3 37 -5 26 -4 30 10 25 15 -6 15 -4 0 18 -9 14 -24 25 -33 25
-14 1 -14 2 2 14 9 7 17 21 17 30 0 12 10 16 40 16 36 0 42 4 39 28 0 4 11 12
26 18 l26 10 -26 14 c-23 12 -35 40 -17 40 5 0 17 7 28 16 18 14 16 15 -26 11
-25 -3 -37 -3 -27 0 12 3 17 15 17 44 0 39 0 39 39 39 39 0 40 -1 44 -37 3
-23 3 -19 2 11 -1 28 -8 52 -16 57 -10 6 -10 9 -1 9 6 0 12 9 12 20 0 14 7 20
21 20 16 0 19 4 14 18 -17 40 -18 62 -1 62 12 0 16 10 16 39 0 29 4 40 19 44
21 5 34 60 18 76 -7 7 -2 17 13 29 19 15 23 29 24 75 1 43 5 57 16 57 11 0 11
3 2 12 -15 15 -16 65 -1 70 9 3 9 9 1 24 -12 23 -6 142 10 197 8 28 8 44 -1
64 -9 20 -9 28 0 34 9 5 9 32 -1 119 -11 87 -11 113 -2 119 9 5 7 12 -8 26
-11 10 -20 30 -20 45 0 15 -9 35 -20 45 -14 13 -20 31 -20 61 0 32 -4 44 -18
48 -13 5 -18 16 -18 44 1 20 -3 47 -7 60 -7 17 -5 22 8 22 9 0 13 5 10 10 -3
6 2 18 11 28 17 16 17 16 12 -6 -4 -13 -2 -20 4 -16 6 4 7 29 3 65 -5 40 -3
59 4 59 6 0 11 8 11 19 0 10 6 24 14 31 8 6 16 21 18 33 2 13 10 22 20 21 13
-1 15 5 11 32 -5 33 9 48 20 22 4 -8 6 -7 6 3 1 9 8 30 16 45 8 16 15 36 15
44 0 9 7 26 16 38 8 12 12 27 9 33 -4 5 5 21 19 34 16 14 23 30 20 39 -3 9 -1
16 5 16 6 0 11 7 11 15 0 8 5 15 11 15 7 0 9 12 5 35 -4 22 -3 35 4 35 5 0 10
11 10 24 0 14 5 28 10 31 6 3 10 17 10 31 0 14 4 23 9 19 12 -7 23 28 15 49
-3 9 -2 16 4 16 5 0 9 12 8 27 -1 16 5 28 12 29 25 3 26 4 14 16 -15 15 -16
62 -1 52 8 -5 10 6 8 33 -3 31 -1 40 11 39 12 -1 14 10 12 57 -3 36 0 57 7 57
6 0 11 9 11 21 0 11 5 17 10 14 12 -8 12 -8 0 34 -6 20 -6 39 -1 45 5 6 9 22
9 36 0 14 2 62 6 108 6 79 4 94 -9 72z m-2710 -251 c9 -28 -19 -59 -37 -41
-16 16 -33 15 -52 -4 -9 -8 -16 -11 -16 -6 0 14 68 72 85 72 7 0 17 -10 20
-21z m215 1 c0 -5 -5 -10 -11 -10 -5 0 -7 5 -4 10 3 6 8 10 11 10 2 0 4 -4 4
-10z m755 -69 c-6 -5 -25 10 -25 20 0 5 6 4 14 -3 8 -7 12 -15 11 -17z m25
-31 c0 -5 -2 -10 -4 -10 -3 0 -8 5 -11 10 -3 6 -1 10 4 10 6 0 11 -4 11 -10z
m-1235 -40 c-3 -5 -12 -10 -18 -10 -7 0 -6 4 3 10 19 12 23 12 15 0z m1765
-66 c0 -8 -19 -13 -24 -6 -3 5 1 9 9 9 8 0 15 -2 15 -3z m-1271 -184 c19 0 26
10 22 33 -1 4 14 1 33 -7 18 -8 39 -10 46 -6 6 4 26 0 44 -9 19 -10 54 -15 94
-14 34 0 62 -3 62 -8 0 -5 9 -4 20 3 14 9 23 10 28 3 11 -17 52 -16 104 1 48
16 123 13 141 -5 7 -7 15 -7 25 1 11 9 13 9 12 -3 -1 -7 -2 -21 -1 -29 1 -12
3 -12 12 2 9 17 37 15 49 -3 3 -5 18 -2 34 6 33 17 71 21 46 5 -11 -7 -7 -9
15 -6 33 4 61 -14 84 -53 11 -21 11 -25 -3 -33 -9 -5 -24 -27 -32 -49 -17 -41
-23 -46 -41 -28 -15 15 -50 2 -56 -21 -7 -28 17 -43 58 -36 27 5 35 4 35 -8 0
-8 -8 -20 -17 -26 -16 -10 -16 -12 10 -33 21 -16 42 -22 84 -22 48 -1 59 -5
79 -28 12 -15 29 -24 37 -22 16 7 51 -30 42 -44 -3 -7 2 -11 14 -11 11 0 29
-12 40 -27 12 -16 25 -33 30 -40 12 -14 -8 -63 -26 -63 -15 0 -17 -16 -4 -24
5 -3 12 1 15 9 5 13 9 13 26 3 15 -10 19 -23 18 -59 0 -44 -2 -46 -27 -42 -20
4 -23 2 -11 -6 12 -9 9 -11 -15 -11 -21 0 -26 -3 -16 -9 7 -5 10 -14 7 -20 -4
-6 -1 -11 6 -12 7 0 2 -5 -11 -10 -16 -6 -21 -14 -17 -25 4 -9 1 -23 -6 -31
-9 -11 -9 -16 3 -24 12 -7 12 -9 -1 -9 -13 0 -13 -1 0 -11 11 -8 12 -12 3 -16
-7 -2 -13 -10 -13 -17 0 -8 -9 -12 -22 -9 -13 2 -32 -3 -43 -11 -17 -13 -17
-15 -3 -16 9 0 18 5 20 11 2 6 14 2 28 -10 l25 -20 -32 -1 c-39 0 -41 -6 -11
-31 15 -13 17 -19 7 -19 -8 0 -20 5 -27 12 -6 6 -14 10 -16 7 -3 -3 8 -19 24
-36 35 -37 36 -43 11 -43 -10 0 -27 11 -37 25 -28 37 -36 30 -14 -12 10 -21
25 -56 33 -78 13 -36 13 -42 -1 -55 -14 -13 -15 -12 -9 3 5 12 1 17 -13 17
-10 0 -22 5 -25 11 -4 6 -13 8 -21 5 -8 -3 -14 -1 -14 4 0 13 -47 13 -55 0 -9
-15 -25 -12 -25 4 0 7 -7 19 -15 26 -10 9 -15 9 -15 1 0 -6 5 -11 10 -11 6 0
10 -4 10 -10 0 -19 -41 -10 -65 14 -20 20 -25 22 -30 8 -3 -9 -3 -13 1 -10 7
8 54 -45 54 -61 0 -25 -32 -9 -60 31 -30 42 -41 34 -15 -12 17 -30 19 -44 5
-35 -6 4 -16 21 -23 38 -11 25 -14 28 -20 14 -3 -9 -3 -17 2 -17 4 0 6 -11 3
-25 -4 -22 -7 -24 -20 -13 -11 9 -16 10 -19 2 -2 -6 -15 -9 -28 -6 -28 5 -30
0 -14 -29 8 -15 6 -25 -9 -44 l-20 -25 -6 23 c-3 12 -6 36 -6 54 0 17 -4 34
-9 37 -5 4 -12 24 -16 46 -7 44 -20 58 -29 34 -3 -8 -10 -12 -16 -9 -5 3 -10
1 -10 -4 0 -6 5 -11 10 -11 6 0 10 -24 9 -52 0 -29 -3 -46 -6 -38 -7 19 -63
76 -64 67 -1 -4 -3 -11 -4 -17 -1 -5 -3 -16 -4 -22 -1 -9 -4 -8 -11 2 -8 12
-10 12 -10 -5 0 -18 -2 -18 -20 5 l-20 25 0 -23 c0 -15 -4 -21 -11 -16 -8 5
-10 -3 -7 -24 3 -22 1 -29 -9 -25 -7 3 -13 14 -13 24 0 24 -20 25 -21 2 0 -15
-2 -15 -8 2 -10 23 -4 38 10 30 5 -4 9 -2 9 3 0 5 -9 12 -20 15 -14 4 -20 14
-20 34 -1 25 -2 26 -14 10 -12 -15 -14 -12 -20 33 -4 31 -13 53 -24 59 -9 5
-14 13 -10 17 5 4 3 13 -3 21 -19 23 2 14 23 -9 14 -17 21 -20 25 -10 6 17 43
-34 42 -58 0 -10 -3 -8 -9 5 -5 11 -9 16 -9 11 -2 -18 41 -96 51 -96 7 0 8 14
4 38 l-6 38 40 1 c23 1 38 -2 35 -7 -3 -5 -1 -11 5 -15 5 -3 10 3 10 14 0 15
-7 21 -22 21 -22 1 -22 1 -3 12 19 11 19 11 0 19 -18 7 -18 8 3 8 13 1 20 5
17 11 -4 6 -15 8 -25 5 -10 -3 -20 0 -23 8 -4 11 9 14 60 15 36 0 67 3 70 6 9
8 -17 36 -33 36 -16 0 -17 9 -4 30 7 12 12 12 22 2 6 -6 26 -12 42 -11 29 0
30 1 9 11 -22 11 -38 36 -28 46 3 3 16 -5 30 -18 l25 -23 1 24 c1 13 2 33 3
44 1 11 11 24 23 30 12 5 24 17 26 27 3 10 14 18 26 18 26 0 28 31 5 55 -13
12 -19 13 -31 3 -11 -9 -16 -9 -22 1 -11 17 -57 10 -53 -8 2 -11 -10 -13 -65
-7 -37 4 -81 9 -98 12 -77 12 -245 24 -400 28 -93 2 -178 7 -187 10 -43 15
-51 15 -70 5 -19 -10 -18 -13 25 -41 38 -25 45 -33 37 -48 -7 -13 -4 -20 15
-28 21 -10 24 -16 18 -44 -6 -31 -5 -32 13 -18 44 35 105 57 76 28 -14 -14
-16 -52 -3 -44 5 3 12 -6 16 -22 4 -15 10 -21 12 -14 7 18 25 14 22 -5 -3 -36
4 -108 8 -84 4 19 7 21 15 10 7 -11 8 -9 4 6 -3 11 3 33 14 50 11 17 20 28 21
25 6 -40 11 -55 21 -61 6 -4 9 -29 6 -67 -2 -34 -1 -59 4 -56 4 3 8 -7 8 -23
-1 -27 -1 -27 -19 10 -9 20 -20 35 -23 31 -4 -3 -2 -17 4 -30 6 -13 8 -27 5
-31 -13 -12 -20 7 -20 52 0 31 -4 42 -10 36 -7 -7 -7 -27 1 -62 16 -67 14 -92
-3 -54 -8 17 -14 24 -15 18 0 -7 -7 -13 -15 -13 -8 0 -15 -3 -15 -7 0 -5 -10
-19 -21 -33 -20 -24 -20 -24 -14 -2 4 14 2 22 -6 22 -8 0 -10 12 -5 40 8 49
-9 54 -23 8 l-9 -33 -1 35 c-2 34 -2 34 -14 12 -7 -12 -16 -19 -20 -16 -4 4
-7 -2 -7 -14 0 -11 5 -22 12 -24 8 -3 8 -9 0 -24 -10 -18 -11 -18 -17 -2 -4
10 -5 35 -3 56 2 26 -1 39 -9 39 -7 0 -13 -6 -13 -14 0 -7 -4 -13 -10 -13 -12
0 -12 4 -1 52 11 47 -3 41 -19 -8 -11 -31 -10 -37 7 -50 16 -13 17 -15 1 -24
-10 -6 -14 -18 -11 -30 4 -14 0 -20 -11 -20 -19 0 -19 1 -6 35 12 33 3 53 -14
30 -10 -14 -12 -11 -8 21 3 30 1 36 -8 27 -7 -6 -12 -27 -12 -48 0 -23 -4 -34
-11 -32 -7 2 -20 0 -30 -5 -28 -14 -39 1 -17 24 11 12 20 30 20 39 0 10 5 21
10 24 6 3 10 14 10 23 0 14 -2 14 -9 3 -5 -7 -13 -11 -18 -8 -6 4 -16 -5 -23
-18 -15 -28 -30 -33 -30 -10 0 8 -4 15 -9 15 -11 0 -18 -27 -17 -62 1 -14 -2
-24 -6 -22 -4 3 -8 12 -8 21 0 9 -6 13 -15 9 -17 -6 -21 9 -5 19 6 3 10 15 10
26 0 11 4 18 9 15 5 -3 11 1 15 9 3 9 0 15 -10 15 -8 0 -19 -11 -24 -24 -8
-21 -30 -45 -30 -32 0 2 9 25 20 51 21 49 10 53 -15 4 -9 -16 -16 -32 -18 -36
-1 -5 -5 -7 -9 -6 -5 2 -8 -2 -8 -7 0 -6 -5 -10 -11 -10 -6 0 -8 7 -5 16 4 9
2 22 -2 28 -5 6 -12 24 -15 40 -4 24 1 35 24 57 20 19 26 30 18 35 -8 4 -27
-10 -51 -37 -21 -24 -35 -36 -32 -26 4 12 1 17 -12 17 -16 1 -15 4 8 24 31 28
27 39 -11 25 l-26 -9 24 20 23 20 -23 0 c-21 0 -20 2 11 25 21 16 42 23 54 20
21 -6 21 -6 1 10 -11 8 -26 12 -35 9 -8 -4 -23 -7 -32 -8 -9 0 -14 -4 -11 -9
3 -5 -3 -7 -13 -5 -13 3 -18 11 -16 28 1 13 -3 27 -10 32 -10 6 -10 8 0 8 7 0
11 4 7 10 -3 5 -12 7 -20 3 -8 -3 -15 -1 -15 5 0 6 6 13 13 15 7 3 5 6 -5 6
-24 1 -23 17 2 24 11 3 20 12 20 21 0 19 -11 21 -28 4 -6 -6 -15 -8 -19 -4 -4
4 6 18 22 31 17 13 27 27 23 31 -4 4 -15 1 -24 -7 -20 -16 -74 -19 -74 -4 0 6
10 16 22 24 22 14 22 14 3 21 -19 7 -18 9 8 20 15 7 27 17 27 22 0 12 -12 9
-34 -7 -21 -16 -46 -20 -46 -7 0 4 13 13 29 20 43 19 95 72 83 84 -7 7 -17 3
-31 -11 -12 -12 -27 -21 -33 -21 -8 1 -6 6 5 14 9 7 17 19 17 26 0 8 8 22 18
33 13 16 14 21 3 25 -9 3 -3 13 20 33 37 32 54 37 45 14 -3 -8 -1 -15 4 -15 5
0 15 7 24 15 8 8 20 15 27 15 7 0 21 7 30 16 10 9 31 16 46 16 15 0 37 7 48
14 26 18 45 18 45 -1 0 -12 7 -14 27 -9 29 8 53 26 53 42 0 5 11 7 25 4 14 -2
25 -10 25 -16 0 -16 70 -8 76 9 4 10 14 11 37 4 18 -5 79 -12 137 -14 58 -3
123 -8 145 -11 97 -14 174 -15 303 -4 75 6 144 12 152 12 8 0 20 4 25 8 6 4
28 11 50 15 75 13 12 25 -158 29 -91 2 -173 8 -183 14 -11 5 -94 8 -186 6
-114 -1 -173 2 -190 10 -12 6 -32 12 -43 13 -11 1 -49 6 -85 12 -36 6 -82 11
-102 11 -26 0 -41 6 -51 21 -8 11 -18 16 -21 11 -3 -6 0 -13 6 -15 8 -3 6 -6
-4 -6 -10 -1 -18 5 -18 12 0 8 -11 19 -25 25 -14 6 -25 15 -24 19 3 19 -15 53
-27 53 -8 0 -13 -5 -11 -12 1 -6 -6 -14 -15 -16 -26 -5 -24 40 2 56 17 10 20
10 20 -4 0 -11 6 -14 23 -8 12 4 36 7 53 5 29 -1 31 1 28 26 l-4 28 12 -27
c12 -27 48 -36 48 -11 0 8 9 11 29 7 23 -5 29 -2 34 15 5 20 7 20 34 6 15 -8
35 -15 44 -15 8 0 21 -6 27 -12 16 -16 32 5 32 41 l0 23 34 -26 c19 -14 44
-26 55 -26z m2351 -40 c0 -5 -5 -10 -11 -10 -5 0 -7 5 -4 10 3 6 8 10 11 10 2
0 4 -4 4 -10z m-2855 -10 c3 -5 1 -10 -4 -10 -6 0 -11 5 -11 10 0 6 2 10 4 10
3 0 8 -4 11 -10z m115 -90 c0 -5 -5 -10 -11 -10 -5 0 -7 5 -4 10 3 6 8 10 11
10 2 0 4 -4 4 -10z m-650 -30 c0 -5 -2 -10 -4 -10 -3 0 -8 5 -11 10 -3 6 -1
10 4 10 6 0 11 -4 11 -10z m-503 -192 c-3 -8 -6 -5 -6 6 -1 11 2 17 5 13 3 -3
4 -12 1 -19z m-87 -16 c0 -15 -2 -15 -10 -2 -13 20 -13 33 0 25 6 -3 10 -14
10 -23z m-133 -14 c-3 -8 -6 -5 -6 6 -1 11 2 17 5 13 3 -3 4 -12 1 -19z m50
-50 c-3 -8 -6 -5 -6 6 -1 11 2 17 5 13 3 -3 4 -12 1 -19z m983 -19 c-7 -11
-14 -18 -17 -15 -3 3 0 12 7 21 18 21 23 19 10 -6z m-17 -45 c11 -14 16 -28
13 -31 -7 -8 -46 32 -46 47 0 17 14 11 33 -16z m-295 -28 c-7 -8 -15 -12 -17
-11 -5 6 10 25 20 25 5 0 4 -6 -3 -14z m3092 10 c0 -3 -4 -8 -10 -11 -5 -3
-10 -1 -10 4 0 6 5 11 10 11 6 0 10 -2 10 -4z m-3425 -46 c3 -5 -3 -10 -14
-10 -12 0 -21 5 -21 10 0 6 6 10 14 10 8 0 18 -4 21 -10z m-261 -26 c3 -8 2
-12 -4 -9 -6 3 -10 10 -10 16 0 14 7 11 14 -7z m3663 -6 c-3 -8 -6 -5 -6 6 -1
11 2 17 5 13 3 -3 4 -12 1 -19z m-3303 -23 c-4 -8 -8 -15 -10 -15 -2 0 -4 7
-4 15 0 8 4 15 10 15 5 0 7 -7 4 -15z m3066 1 c0 -8 -6 -16 -14 -19 -8 -3 -16
-16 -18 -28 -2 -12 -10 -24 -18 -26 -12 -4 -13 -3 -1 5 8 6 11 17 7 27 -3 10
-4 26 -1 36 7 22 45 26 45 5z m-620 -106 c8 -5 11 -10 5 -10 -5 0 -17 5 -25
10 -8 5 -10 10 -5 10 6 0 17 -5 25 -10z m257 -32 c-3 -7 -5 -2 -5 12 0 14 2
19 5 13 2 -7 2 -19 0 -25z m-2672 2 c3 -5 1 -10 -4 -10 -6 0 -11 5 -11 10 0 6
2 10 4 10 3 0 8 -4 11 -10z m148 -30 c-6 -24 -23 -37 -23 -18 0 12 18 38 26
38 1 0 0 -9 -3 -20z m422 -30 c-3 -5 -11 -10 -16 -10 -6 0 -7 5 -4 10 3 6 11
10 16 10 6 0 7 -4 4 -10z m10 -30 c-3 -5 -12 -10 -18 -10 -7 0 -6 4 3 10 19
12 23 12 15 0z m-1138 -22 c-3 -8 -6 -5 -6 6 -1 11 2 17 5 13 3 -3 4 -12 1
-19z m666 -21 c-9 -15 -21 4 -15 25 5 21 6 21 12 2 4 -10 5 -22 3 -27z m2587
28 c0 -8 -4 -15 -10 -15 -5 0 -10 7 -10 15 0 8 5 15 10 15 6 0 10 -7 10 -15z
m-1385 -66 c-10 -15 -25 -10 -19 6 4 8 10 12 15 9 5 -3 7 -10 4 -15z m78 -16
c-7 -2 -19 -2 -25 0 -7 3 -2 5 12 5 14 0 19 -2 13 -5z m-786 -35 c-3 -8 -6 -5
-6 6 -1 11 2 17 5 13 3 -3 4 -12 1 -19z m837 0 c-4 -13 -10 -25 -14 -28 -4 -3
-10 -12 -14 -20 -6 -14 4 37 13 68 1 1 6 2 12 2 6 0 8 -9 3 -22z m-115 -25 c0
-29 -2 -33 -8 -18 -7 18 -4 55 5 55 2 0 4 -17 3 -37z m41 -31 c0 -21 -2 -24
-10 -12 -13 20 -13 53 0 45 6 -3 10 -18 10 -33z m-690 -13 c0 -15 -18 -19 -23
-6 -3 8 1 14 9 14 8 0 14 -4 14 -8z m737 -31 c-3 -8 -6 -5 -6 6 -1 11 2 17 5
13 3 -3 4 -12 1 -19z m30 -20 c-3 -7 -5 -2 -5 12 0 14 2 19 5 13 2 -7 2 -19 0
-25z m-537 12 c0 -5 -5 -10 -11 -10 -5 0 -7 5 -4 10 3 6 8 10 11 10 2 0 4 -4
4 -10z m877 -42 c-3 -8 -6 -5 -6 6 -1 11 2 17 5 13 3 -3 4 -12 1 -19z m-500
-50 c-3 -7 -5 -2 -5 12 0 14 2 19 5 13 2 -7 2 -19 0 -25z m512 -11 c-1 -31 -1
-31 -9 -7 -11 36 -11 52 0 45 6 -3 10 -21 9 -38z m-1192 -19 c-3 -8 -6 -5 -6
6 -1 11 2 17 5 13 3 -3 4 -12 1 -19z m641 -22 c-1 -19 -5 -33 -8 -31 -7 4 -1
65 6 65 3 0 4 -15 2 -34z m49 -8 c-3 -8 -6 -5 -6 6 -1 11 2 17 5 13 3 -3 4
-12 1 -19z m213 2 c0 -5 -5 -10 -11 -10 -5 0 -7 5 -4 10 3 6 8 10 11 10 2 0 4
-4 4 -10z m1850 -14 c0 -3 -4 -8 -10 -11 -5 -3 -10 -1 -10 4 0 6 5 11 10 11 6
0 10 -2 10 -4z m-360 -16 c0 -5 -4 -10 -10 -10 -5 0 -10 5 -10 10 0 6 5 10 10
10 6 0 10 -4 10 -10z m977 -126 c-3 -3 -12 -4 -19 -1 -8 3 -5 6 6 6 11 1 17
-2 13 -5z m-4407 -93 c0 -6 -4 -13 -10 -16 -5 -3 -10 1 -10 9 0 9 5 16 10 16
6 0 10 -4 10 -9z m3324 -146 c-4 -8 -8 -15 -10 -15 -2 0 -4 7 -4 15 0 8 4 15
10 15 5 0 7 -7 4 -15z m-3507 -251 c-3 -3 -12 -4 -19 -1 -8 3 -5 6 6 6 11 1
17 -2 13 -5z m-1 -51 c-10 -10 -19 5 -10 18 6 11 8 11 12 0 2 -7 1 -15 -2 -18z
m1444 -33 c8 -5 11 -10 5 -10 -5 0 -17 5 -25 10 -8 5 -10 10 -5 10 6 0 17 -5
25 -10z m1226 1 c-4 -5 0 -11 6 -14 7 -2 10 -8 5 -12 -4 -5 -13 -3 -19 3 -8 8
-15 7 -24 -6 -10 -13 -13 -13 -14 -3 0 8 8 20 18 27 20 15 36 18 28 5z m-2513
-41 c-3 -11 -9 -20 -13 -20 -5 0 -6 9 -3 20 3 11 9 20 13 20 5 0 6 -9 3 -20z
m1547 0 c0 -5 -5 -10 -11 -10 -5 0 -7 5 -4 10 3 6 8 10 11 10 2 0 4 -4 4 -10z
m-50 -60 c0 -5 -4 -10 -10 -10 -5 0 -10 5 -10 10 0 6 5 10 10 10 6 0 10 -4 10
-10z m-1510 -20 c0 -11 -4 -20 -10 -20 -5 0 -10 9 -10 20 0 11 5 20 10 20 6 0
10 -9 10 -20z m1820 -65 c0 -8 -4 -15 -10 -15 -5 0 -7 7 -4 15 4 8 8 15 10 15
2 0 4 -7 4 -15z m27 -7 c-3 -8 -6 -5 -6 6 -1 11 2 17 5 13 3 -3 4 -12 1 -19z
m37 -4 c8 -20 8 -19 -21 -28 -14 -5 -23 -3 -23 3 0 6 7 11 16 11 10 0 14 6 10
15 -3 8 -1 15 3 15 5 0 12 -7 15 -16z m61 -14 c3 -5 1 -10 -4 -10 -6 0 -11 5
-11 10 0 6 2 10 4 10 3 0 8 -4 11 -10z m-2111 -54 c-5 -21 -3 -24 15 -19 15 4
21 1 21 -11 0 -10 -6 -13 -15 -10 -10 4 -15 0 -15 -12 0 -11 -11 -24 -25 -31
-28 -12 -34 1 -16 35 5 9 14 29 20 45 13 34 24 36 15 3z m3226 14 c0 -5 -4
-10 -10 -10 -5 0 -10 5 -10 10 0 6 5 10 10 10 6 0 10 -4 10 -10z m-103 -236
c-3 -3 -12 -4 -19 -1 -8 3 -5 6 6 6 11 1 17 -2 13 -5z m-3085 -26 c-7 -7 -12
-8 -12 -2 0 14 12 26 19 19 2 -3 -1 -11 -7 -17z m-55 -20 c-3 -8 -6 -5 -6 6
-1 11 2 17 5 13 3 -3 4 -12 1 -19z m155 -26 c2 -21 8 -27 26 -26 12 0 22 -5
22 -13 0 -9 13 -13 40 -13 29 0 40 -4 40 -15 0 -8 3 -15 8 -15 9 0 38 -56 45
-87 6 -25 -10 -32 -19 -8 -4 8 -12 15 -20 15 -16 0 -94 79 -94 96 0 15 -45 27
-71 19 -14 -5 -21 0 -28 17 -5 13 -5 25 -2 28 4 3 10 13 14 22 9 25 35 11 39
-20z m78 2 c0 -2 -7 -4 -15 -4 -8 0 -15 4 -15 10 0 5 7 7 15 4 8 -4 15 -8 15
-10z m-235 -34 c3 -5 -1 -10 -10 -10 -9 0 -13 5 -10 10 3 6 8 10 10 10 2 0 7
-4 10 -10z m2985 5 c0 -15 -34 -55 -47 -55 -11 0 -9 7 7 30 19 27 40 40 40 25z
m260 -5 c0 -5 -4 -10 -10 -10 -5 0 -10 5 -10 10 0 6 5 10 10 10 6 0 10 -4 10
-10z m460 -45 c0 -8 -7 -15 -16 -15 -8 0 -13 4 -9 9 3 5 -5 12 -17 14 -17 3
-14 5 10 6 22 1 32 -3 32 -14z m-726 -51 c26 -10 18 -24 -14 -24 -30 0 -41 14
-17 23 6 3 13 6 14 6 1 1 8 -2 17 -5z m236 -130 c0 -14 -3 -14 -15 -4 -8 7
-15 14 -15 16 0 2 7 4 15 4 8 0 15 -7 15 -16z m-2735 -54 c18 -8 17 -9 -7 -9
-16 -1 -28 -6 -28 -13 0 -6 -2 -9 -5 -6 -7 6 5 38 14 37 3 0 15 -4 26 -9z
m3200 -10 c-3 -5 -12 -10 -18 -10 -7 0 -6 4 3 10 19 12 23 12 15 0z m-3985
-20 c0 -5 -4 -10 -10 -10 -5 0 -10 5 -10 10 0 6 5 10 10 10 6 0 10 -4 10 -10z
m-49 -40 c-28 -24 -41 -25 -41 -6 0 13 18 20 55 24 6 1 -1 -8 -14 -18z m4 -39
c3 -5 1 -12 -5 -16 -5 -3 -10 1 -10 9 0 18 6 21 15 7z m11 -57 c-5 -14 -9 -15
-19 -5 -9 9 -9 14 3 21 18 11 24 6 16 -16z m4631 -3 c7 -10 9 -22 6 -25 -6 -6
-32 23 -33 37 0 14 15 7 27 -12z m-4627 -36 c-7 -9 -15 -13 -19 -10 -3 3 1 10
9 15 21 14 24 12 10 -5z m3990 -36 c0 -19 5 -29 15 -29 8 0 15 5 15 11 0 5 5
7 11 4 7 -5 3 -14 -11 -27 -13 -12 -25 -17 -31 -11 -13 13 -22 96 -9 88 5 -3
10 -19 10 -36z m87 -139 c9 -22 10 -70 2 -70 -4 0 -10 18 -14 40 -4 22 -11 40
-16 40 -5 0 -9 5 -9 11 0 5 5 7 12 3 7 -5 9 -2 5 8 -3 9 -3 19 1 23 4 4 8 -4
10 -17 2 -12 6 -30 9 -38z m-67 -46 c0 -8 -4 -14 -10 -14 -5 0 -10 9 -10 21 0
11 5 17 10 14 6 -3 10 -13 10 -21z m45 6 c-3 -5 -10 -10 -16 -10 -5 0 -9 5 -9
10 0 6 7 10 16 10 8 0 12 -4 9 -10z m89 -6 c3 -8 2 -12 -4 -9 -6 3 -13 -1 -16
-9 -9 -22 -23 -10 -17 14 6 24 28 26 37 4z m19 -49 c-3 -9 -8 -14 -10 -11 -3
3 -2 9 2 15 9 16 15 13 8 -4z m533 -12 c-10 -10 -19 5 -10 18 6 11 8 11 12 0
2 -7 1 -15 -2 -18z m-603 -24 c-8 -29 -13 -23 -13 14 0 22 3 28 9 18 5 -7 6
-22 4 -32z m37 -11 c0 -16 -3 -19 -11 -11 -6 6 -8 16 -5 22 11 17 16 13 16
-11z m29 -125 c-8 -14 -12 -35 -11 -47 3 -16 1 -18 -9 -9 -9 9 -9 18 0 41 7
16 12 36 11 43 -2 8 -1 37 0 64 l3 50 10 -58 c7 -46 6 -64 -4 -84z m-69 97 c0
-5 -5 -10 -11 -10 -5 0 -7 5 -4 10 3 6 8 10 11 10 2 0 4 -4 4 -10z m44 -35
c-4 -8 -7 -15 -9 -15 -2 0 -5 7 -9 15 -3 9 0 15 9 15 9 0 12 -6 9 -15z m197
-22 c-9 -16 -10 -14 -11 12 0 21 3 26 11 18 8 -8 8 -16 0 -30z m-311 -18 c7
-8 8 -15 2 -15 -5 0 -15 7 -22 15 -7 8 -8 15 -2 15 5 0 15 -7 22 -15z m330
-25 c0 -5 -2 -10 -4 -10 -3 0 -8 5 -11 10 -3 6 -1 10 4 10 6 0 11 -4 11 -10z
m-141 -61 c1 11 5 10 19 -4 18 -19 26 -65 11 -65 -5 0 -9 12 -9 26 0 16 -5 24
-12 21 -8 -2 -12 -16 -10 -31 4 -34 -21 -32 -26 2 -2 12 -8 20 -13 17 -13 -9
-11 4 9 53 l17 42 6 -37 c3 -21 7 -32 8 -24z m-426 20 c4 -16 3 -18 -9 -8 -16
13 -19 29 -5 29 5 0 11 -9 14 -21z m345 -33 c3 -12 -1 -17 -10 -14 -7 3 -15
13 -16 22 -3 12 1 17 10 14 7 -3 15 -13 16 -22z m184 -39 c-5 -7 -12 -24 -16
-39 -7 -31 -18 -35 -36 -13 -10 13 -9 15 9 15 15 0 21 6 21 23 0 26 22 55 28
37 2 -6 0 -16 -6 -23z m-212 3 c0 -5 -4 -10 -10 -10 -5 0 -10 5 -10 10 0 6 5
10 10 10 6 0 10 -4 10 -10z"/>
<path d="M4691 4426 c-9 -10 -8 -15 4 -20 8 -3 15 -4 15 -2 0 3 3 11 6 20 8
20 -9 21 -25 2z"/>
<path d="M5325 3870 c3 -5 8 -10 11 -10 2 0 4 5 4 10 0 6 -5 10 -11 10 -5 0
-7 -4 -4 -10z"/>
<path d="M5338 3833 c7 -3 16 -2 19 1 4 3 -2 6 -13 5 -11 0 -14 -3 -6 -6z"/>
<path d="M4298 3433 c7 -3 16 -2 19 1 4 3 -2 6 -13 5 -11 0 -14 -3 -6 -6z"/>
<path d="M5920 3214 c0 -11 42 -44 55 -44 15 0 2 20 -17 26 -13 4 -26 12 -30
18 -6 8 -8 8 -8 0z"/>
<path d="M5942 3149 c2 -7 10 -15 17 -17 8 -3 12 1 9 9 -2 7 -10 15 -17 17 -8
3 -12 -1 -9 -9z"/>
<path d="M4420 3140 c0 -5 5 -10 10 -10 6 0 10 5 10 10 0 6 -4 10 -10 10 -5 0
-10 -4 -10 -10z"/>
<path d="M4912 3100 c0 -14 2 -19 5 -12 2 6 2 18 0 25 -3 6 -5 1 -5 -13z"/>
<path d="M5240 2985 c0 -14 5 -25 10 -25 6 0 10 11 10 25 0 14 -4 25 -10 25
-5 0 -10 -11 -10 -25z"/>
<path d="M5910 2995 c7 -9 15 -13 17 -11 7 7 -7 26 -19 26 -6 0 -6 -6 2 -15z"/>
<path d="M4885 2980 c3 -5 8 -10 11 -10 2 0 4 5 4 10 0 6 -5 10 -11 10 -5 0
-7 -4 -4 -10z"/>
<path d="M5710 2964 c0 -8 5 -12 10 -9 6 4 8 11 5 16 -9 14 -15 11 -15 -7z"/>
<path d="M5960 2970 c0 -5 5 -10 11 -10 5 0 7 5 4 10 -3 6 -8 10 -11 10 -2 0
-4 -4 -4 -10z"/>
<path d="M5868 2963 c7 -3 16 -2 19 1 4 3 -2 6 -13 5 -11 0 -14 -3 -6 -6z"/>
<path d="M4932 2940 c0 -14 2 -19 5 -12 2 6 2 18 0 25 -3 6 -5 1 -5 -13z"/>
<path d="M5580 2948 c0 -9 5 -20 10 -23 13 -8 13 5 0 25 -8 13 -10 13 -10 -2z"/>
<path d="M5571 2834 c0 -11 3 -14 6 -6 3 7 2 16 -1 19 -3 4 -6 -2 -5 -13z"/>
<path d="M5750 4655 c0 -3 5 -15 10 -25 9 -17 14 -18 35 -8 14 6 24 16 22 22
-4 12 -67 22 -67 11z"/>
<path d="M3021 4524 c0 -11 3 -14 6 -6 3 7 2 16 -1 19 -3 4 -6 -2 -5 -13z"/>
<path d="M4780 4468 c0 -4 4 -8 9 -8 6 0 12 4 15 8 3 5 -1 9 -9 9 -8 0 -15 -4
-15 -9z"/>
<path d="M6481 3974 c0 -11 3 -14 6 -6 3 7 2 16 -1 19 -3 4 -6 -2 -5 -13z"/>
<path d="M3170 3960 c0 -11 -4 -20 -10 -20 -5 0 -10 -5 -10 -12 0 -6 3 -8 7
-5 3 4 11 3 18 -3 8 -6 10 1 7 25 -5 38 -12 47 -12 15z"/>
<path d="M3340 3915 c-7 -9 -8 -15 -2 -15 5 0 12 7 16 15 3 8 4 15 2 15 -2 0
-9 -7 -16 -15z"/>
<path d="M6500 3916 c0 -9 5 -16 10 -16 6 0 10 4 10 9 0 6 -4 13 -10 16 -5 3
-10 -1 -10 -9z"/>
<path d="M3151 3884 c0 -11 3 -14 6 -6 3 7 2 16 -1 19 -3 4 -6 -2 -5 -13z"/>
<path d="M3180 3890 c0 -5 5 -10 10 -10 6 0 10 5 10 10 0 6 -4 10 -10 10 -5 0
-10 -4 -10 -10z"/>
<path d="M7136 3844 c-8 -22 4 -40 15 -23 11 18 11 39 0 39 -5 0 -12 -7 -15
-16z"/>
<path d="M3451 3773 c0 -5 4 -17 9 -28 8 -18 9 -17 9 8 1 15 -3 27 -9 27 -5 0
-10 -3 -9 -7z"/>
<path d="M7028 3745 c2 -14 6 -25 8 -25 2 0 4 11 4 25 0 14 -4 25 -9 25 -4 0
-6 -11 -3 -25z"/>
<path d="M3524 3726 c-3 -21 -4 -39 -1 -42 2 -3 8 11 11 32 4 20 5 38 2 41 -2
3 -8 -11 -12 -31z"/>
<path d="M7000 3731 c0 -6 5 -13 10 -16 6 -3 10 -16 10 -27 0 -12 3 -19 6 -15
9 8 -6 67 -17 67 -5 0 -9 -4 -9 -9z"/>
<path d="M6947 3723 c-4 -3 -7 -11 -7 -17 0 -6 5 -5 12 2 6 6 9 14 7 17 -3 3
-9 2 -12 -2z"/>
<path d="M7041 3694 c0 -11 3 -14 6 -6 3 7 2 16 -1 19 -3 4 -6 -2 -5 -13z"/>
<path d="M6980 3685 c0 -8 -4 -15 -10 -15 -14 0 -13 -47 1 -56 8 -5 10 1 7 20
-4 19 -2 26 7 22 8 -3 13 5 13 20 0 13 -4 24 -9 24 -5 0 -9 -7 -9 -15z"/>
<path d="M3682 3625 c0 -16 2 -22 5 -12 2 9 2 23 0 30 -3 6 -5 -1 -5 -18z"/>
<path d="M3591 3604 c0 -11 3 -14 6 -6 3 7 2 16 -1 19 -3 4 -6 -2 -5 -13z"/>
<path d="M6908 3583 c7 -3 16 -2 19 1 4 3 -2 6 -13 5 -11 0 -14 -3 -6 -6z"/>
<path d="M6790 3561 c0 -6 4 -13 10 -16 6 -3 7 1 4 9 -7 18 -14 21 -14 7z"/>
<path d="M6880 3550 c0 -5 5 -10 11 -10 5 0 7 5 4 10 -3 6 -8 10 -11 10 -2 0
-4 -4 -4 -10z"/>
<path d="M3211 3454 c0 -11 3 -14 6 -6 3 7 2 16 -1 19 -3 4 -6 -2 -5 -13z"/>
<path d="M3112 3220 c-6 -11 -8 -21 -3 -25 5 -3 13 4 16 16 9 28 2 33 -13 9z"/>
<path d="M3072 3170 c0 -14 2 -19 5 -12 2 6 2 18 0 25 -3 6 -5 1 -5 -13z"/>
<path d="M3101 3133 c-1 -12 3 -24 8 -27 10 -6 25 24 16 32 -3 3 -5 -1 -6 -9
0 -8 -4 -6 -9 6 -8 19 -9 19 -9 -2z"/>
<path d="M2575 3010 c-3 -5 -1 -10 4 -10 6 0 11 5 11 10 0 6 -2 10 -4 10 -3 0
-8 -4 -11 -10z"/>
<path d="M3070 3004 c0 -8 5 -12 10 -9 6 3 10 10 10 16 0 5 -4 9 -10 9 -5 0
-10 -7 -10 -16z"/>
<path d="M3527 2923 c-4 -3 -7 -11 -7 -17 0 -6 5 -5 12 2 6 6 9 14 7 17 -3 3
-9 2 -12 -2z"/>
<path d="M3060 2830 c0 -5 5 -10 11 -10 5 0 7 5 4 10 -3 6 -8 10 -11 10 -2 0
-4 -4 -4 -10z"/>
<path d="M7180 2760 c0 -5 5 -10 10 -10 6 0 10 5 10 10 0 6 -4 10 -10 10 -5 0
-10 -4 -10 -10z"/>
<path d="M7120 2624 c0 -17 22 -14 28 4 2 7 -3 12 -12 12 -9 0 -16 -7 -16 -16z"/>
<path d="M7920 2574 c0 -8 5 -12 10 -9 6 4 8 11 5 16 -9 14 -15 11 -15 -7z"/>
<path d="M1091 2424 c0 -11 3 -14 6 -6 3 7 2 16 -1 19 -3 4 -6 -2 -5 -13z"/>
<path d="M1398 2403 c7 -3 16 -2 19 1 4 3 -2 6 -13 5 -11 0 -14 -3 -6 -6z"/>
<path d="M1393 2383 c-7 -2 -13 -11 -13 -19 0 -8 6 -14 13 -14 21 0 40 17 33
29 -8 12 -13 12 -33 4z"/>
<path d="M6480 2275 c0 -9 5 -15 11 -13 6 2 11 8 11 13 0 5 -5 11 -11 13 -6 2
-11 -4 -11 -13z"/>
<path d="M3331 2254 c0 -11 3 -14 6 -6 3 7 2 16 -1 19 -3 4 -6 -2 -5 -13z"/>
<path d="M1183 2243 c-32 -6 -51 -32 -32 -44 26 -17 52 -6 54 24 0 15 1 26 0
26 0 -1 -10 -4 -22 -6z"/>
<path d="M3050 2226 c0 -9 5 -16 10 -16 6 0 10 4 10 9 0 6 -4 13 -10 16 -5 3
-10 -1 -10 -9z"/>
<path d="M6419 2217 c-9 -12 -20 -37 -23 -54 -5 -22 -14 -33 -29 -36 -19 -4
-18 -4 4 -6 20 -1 28 5 33 22 8 31 66 95 72 80 3 -7 9 -13 14 -13 4 0 10 6 13
13 3 8 -8 13 -32 14 -27 2 -40 -3 -52 -20z"/>
<path d="M7710 2170 c0 -5 5 -10 10 -10 6 0 10 5 10 10 0 6 -4 10 -10 10 -5 0
-10 -4 -10 -10z"/>
<path d="M7120 2120 c0 -5 5 -10 10 -10 6 0 10 5 10 10 0 6 -4 10 -10 10 -5 0
-10 -4 -10 -10z"/>
<path d="M7070 2069 c0 -5 5 -7 10 -4 6 3 10 8 10 11 0 2 -4 4 -10 4 -5 0 -10
-5 -10 -11z"/>
<path d="M4452 2020 c0 -14 2 -19 5 -12 2 6 2 18 0 25 -3 6 -5 1 -5 -13z"/>
<path d="M3400 2016 c0 -8 5 -18 10 -21 6 -3 10 1 10 9 0 8 -4 18 -10 21 -5 3
-10 -1 -10 -9z"/>
<path d="M4534 2008 c3 -13 6 -27 6 -31 0 -5 5 -5 10 -2 17 10 12 55 -6 55
-12 0 -15 -6 -10 -22z"/>
<path d="M4617 2010 c6 -8 13 -28 16 -45 l4 -30 2 31 c0 20 -6 37 -16 45 -16
12 -16 12 -6 -1z"/>
<path d="M5615 1920 c-19 -8 -19 -9 2 -9 12 -1 25 4 28 9 7 12 -2 12 -30 0z"/>
<path d="M7020 1911 c0 -6 5 -13 10 -16 6 -3 10 1 10 9 0 9 -4 16 -10 16 -5 0
-10 -4 -10 -9z"/>
<path d="M4791 1894 c0 -11 3 -14 6 -6 3 7 2 16 -1 19 -3 4 -6 -2 -5 -13z"/>
<path d="M5550 1880 c-8 -5 -11 -12 -8 -16 10 -9 38 3 38 16 0 12 -10 13 -30
0z"/>
<path d="M4986 1872 c-2 -4 -1 -14 5 -22 7 -12 9 -10 9 8 0 23 -5 28 -14 14z"/>
<path d="M8611 1857 c2 -37 0 -47 -14 -47 -15 0 -36 -45 -44 -93 -5 -30 -10
-36 -39 -41 -24 -5 -34 -13 -36 -29 -2 -18 -9 -21 -33 -19 -62 5 -74 4 -99
-14 -31 -24 -45 -57 -44 -110 1 -51 -7 -64 -38 -64 -13 0 -24 -4 -24 -10 0 -5
8 -10 19 -10 11 0 21 -9 24 -21 3 -12 10 -18 16 -15 12 8 27 -14 15 -23 -10
-7 -30 -38 -41 -61 -4 -8 -11 -18 -17 -22 -8 -5 -7 -11 2 -20 14 -14 24 -6 46
37 14 27 16 28 16 8 0 -13 5 -23 11 -23 7 0 10 15 7 41 l-4 40 78 -3 c43 -2
78 -1 78 2 0 3 -7 14 -15 24 -22 30 -19 56 7 56 17 0 19 3 10 12 -15 15 -16
62 -2 53 14 -9 90 26 90 41 0 7 6 15 13 18 8 3 5 11 -10 24 l-22 19 40 39 c39
38 68 90 82 146 4 15 14 34 23 42 14 15 14 16 -3 16 -10 1 -35 7 -56 14 -37
14 -38 13 -36 -7z m-95 -242 c18 -14 18 -14 -8 -15 -18 0 -28 5 -28 15 0 19
11 19 36 0z m64 -39 c0 -3 -4 -8 -10 -11 -5 -3 -10 -1 -10 4 0 6 5 11 10 11 6
0 10 -2 10 -4z"/>
<path d="M6220 1809 c0 -5 5 -7 10 -4 6 3 10 8 10 11 0 2 -4 4 -10 4 -5 0 -10
-5 -10 -11z"/>
<path d="M9040 1750 c0 -5 7 -10 15 -10 8 0 15 5 15 10 0 6 -7 10 -15 10 -8 0
-15 -4 -15 -10z"/>
<path d="M8928 1722 c-10 -2 -18 -10 -18 -18 0 -8 -6 -14 -12 -14 -13 0 -98
-83 -98 -95 0 -4 -11 -16 -25 -27 -14 -11 -22 -24 -19 -29 3 -6 -3 -13 -15
-16 -15 -4 -23 -16 -27 -44 -5 -32 -10 -38 -28 -36 -19 2 -22 -4 -26 -52 -3
-30 -11 -56 -18 -59 -8 -2 -8 -8 0 -22 9 -14 7 -23 -10 -45 -27 -33 -29 -57
-5 -48 13 5 15 3 8 -13 -4 -10 -10 -34 -13 -51 -3 -24 -9 -33 -23 -33 -10 0
-21 5 -24 10 -3 6 -12 10 -18 10 -7 -1 -6 -5 4 -13 17 -13 33 -87 19 -87 -4 0
-11 6 -14 13 -3 6 -3 2 0 -10 3 -13 2 -54 -2 -93 -5 -57 -10 -70 -24 -70 -10
0 -20 -9 -23 -20 -3 -11 0 -20 6 -20 7 0 18 -4 25 -9 11 -6 7 -15 -17 -40 -35
-36 -36 -39 -17 -60 11 -12 13 -26 7 -53 -6 -25 -5 -38 3 -41 8 -3 8 -8 0 -17
-9 -9 -16 -9 -32 1 -16 10 -26 10 -47 1 -23 -11 -25 -15 -14 -28 10 -12 10
-17 1 -23 -9 -5 -4 -11 14 -20 32 -14 42 -8 20 14 -20 20 -20 25 -1 25 8 0 15
-7 15 -15 0 -8 5 -15 11 -15 8 0 9 -13 5 -40 -7 -43 6 -54 24 -20 14 26 30 26
30 -1 0 -18 2 -19 15 -5 18 18 20 66 3 66 -9 0 -10 2 -2 8 6 4 15 21 18 39 10
42 46 89 56 73 11 -17 30 -3 30 21 0 18 -10 23 -39 19 -10 -1 -11 4 -6 17 4
10 10 28 12 40 3 13 10 20 19 16 23 -9 39 8 20 23 -16 11 -14 17 26 71 47 62
70 115 61 139 -3 8 1 14 11 14 12 0 15 6 10 25 -5 20 -3 25 14 25 11 0 20 6
19 13 -1 41 5 66 23 85 16 17 19 30 14 57 -4 23 -2 35 5 35 6 0 12 -12 12 -27
1 -21 2 -23 6 -8 3 11 11 25 18 31 15 11 9 58 -6 48 -5 -3 -9 4 -9 15 0 11 9
25 19 31 11 5 21 20 23 32 2 13 13 27 25 33 17 7 23 21 28 60 4 27 15 70 26
94 10 24 16 48 12 54 -3 5 2 16 12 24 11 7 13 13 7 13 -9 0 -10 5 -2 19 5 11
10 22 10 26 0 5 -76 3 -112 -3z m-191 -734 c-3 -8 -6 -5 -6 6 -1 11 2 17 5 13
3 -3 4 -12 1 -19z"/>
<path d="M8400 1704 c0 -22 36 -49 45 -34 3 6 -1 10 -10 10 -9 0 -14 4 -11 9
3 5 -1 14 -9 21 -12 10 -15 9 -15 -6z"/>
<path d="M2920 1659 c0 -11 5 -17 10 -14 6 3 10 13 10 21 0 8 -4 14 -10 14 -5
0 -10 -9 -10 -21z"/>
<path d="M9031 1614 c0 -11 3 -14 6 -6 3 7 2 16 -1 19 -3 4 -6 -2 -5 -13z"/>
<path d="M2950 1566 c0 -8 -5 -16 -11 -18 -7 -2 -10 -10 -8 -17 4 -11 9 -10
22 3 19 19 23 46 7 46 -5 0 -10 -6 -10 -14z"/>
<path d="M6898 1523 c6 -2 18 -2 25 0 6 3 1 5 -13 5 -14 0 -19 -2 -12 -5z"/>
<path d="M9297 1524 c-4 -4 -7 -25 -7 -46 0 -21 -4 -38 -10 -38 -5 0 -10 -18
-10 -40 l0 -40 -45 0 -45 0 0 -40 c0 -33 -3 -40 -20 -40 -17 0 -20 -7 -20 -40
l0 -40 -61 0 c-37 0 -58 -4 -54 -10 3 -5 26 -10 50 -10 38 0 44 -3 49 -26 4
-15 5 -29 1 -32 -3 -3 -5 0 -5 6 0 7 -15 12 -35 12 -19 0 -44 5 -54 12 -15 9
-23 9 -35 -1 -24 -20 -19 -29 17 -34 28 -3 26 -4 -10 -5 -41 -2 -43 -4 -43
-32 0 -28 3 -30 38 -30 20 0 44 -5 52 -11 12 -8 10 -9 -7 -4 -19 5 -25 1 -33
-20 -8 -22 -13 -25 -25 -15 -20 17 -59 8 -63 -14 -2 -10 0 -21 6 -25 5 -3 6
-15 1 -26 -7 -19 -8 -19 -8 3 -1 12 -5 22 -9 22 -11 0 -42 -100 -42 -135 0
-16 -5 -45 -11 -64 -6 -20 -15 -49 -20 -66 -5 -17 -5 -33 0 -38 6 -6 0 -20
-15 -36 -26 -28 -31 -57 -12 -63 7 -3 9 -12 5 -22 -4 -9 -11 -14 -17 -11 -6 4
-11 -7 -11 -24 -1 -17 -2 -37 -3 -43 -1 -8 11 -13 29 -13 25 0 30 -4 31 -25 0
-14 4 -33 9 -44 9 -22 -11 -38 -37 -30 -29 9 -22 -31 7 -44 26 -12 29 -20 19
-46 -9 -22 -29 -20 -40 4 -7 16 -9 10 -9 -25 0 -29 4 -45 13 -45 6 0 12 -7 12
-15 0 -8 4 -15 10 -15 6 0 6 -8 1 -22 -5 -13 -12 -32 -16 -43 -5 -15 -8 -16
-14 -6 -6 9 -11 10 -15 2 -4 -6 -2 -11 3 -11 6 0 11 -18 11 -40 l0 -40 66 0
67 0 -5 50 c-3 28 -1 50 4 50 5 0 8 13 7 28 -2 18 4 36 14 46 11 11 17 32 17
54 -1 42 12 122 24 140 4 7 2 20 -5 28 -14 17 -3 32 13 16 8 -8 14 -7 24 3 19
19 17 24 -6 18 -15 -4 -20 0 -20 16 0 15 6 21 23 21 12 0 18 4 12 8 -5 4 -11
22 -12 41 -2 26 2 34 18 38 12 4 19 13 18 27 -4 40 1 56 16 56 8 0 15 8 15 18
1 9 9 35 20 57 11 22 19 50 20 62 0 12 8 26 17 32 10 5 14 13 9 18 -5 4 -11 2
-13 -4 -6 -16 -23 -17 -23 -3 0 6 9 20 19 32 11 11 17 26 15 33 -3 6 6 23 20
36 14 13 26 34 26 47 0 12 5 22 11 22 6 0 9 17 7 43 l-3 42 34 -3 c31 -2 33
-1 20 14 -11 13 -11 18 -1 21 6 3 12 13 12 24 0 11 7 30 15 42 8 13 16 49 19
80 2 33 10 65 19 75 9 9 25 43 37 75 27 71 21 117 -15 117 -13 0 -30 2 -37 5
-8 3 -17 2 -21 -1z m-117 -331 c0 -5 -4 -14 -9 -21 -6 -10 -10 -9 -14 7 -3 14
0 21 9 21 8 0 14 -3 14 -7z m-223 -295 c-2 -13 -4 -3 -4 22 0 25 2 35 4 23 2
-13 2 -33 0 -45z m-40 -10 c-3 -8 -6 -5 -6 6 -1 11 2 17 5 13 3 -3 4 -12 1
-19z m43 -107 c0 -10 -7 -21 -15 -25 -16 -6 -19 3 -9 28 8 22 24 20 24 -3z
m-120 -290 c0 -17 -27 -37 -37 -27 -4 4 28 46 34 46 2 0 3 -9 3 -19z"/>
<path d="M6848 1495 c-4 -17 -1 -25 9 -25 8 0 11 5 8 10 -4 6 -1 17 5 25 10
12 9 15 -3 15 -8 0 -17 -11 -19 -25z"/>
<path d="M2848 1426 c-30 -47 -38 -78 -14 -54 19 19 58 98 49 98 -5 0 -20 -20
-35 -44z"/>
<path d="M8480 1414 c0 -17 22 -14 28 4 2 7 -3 12 -12 12 -9 0 -16 -7 -16 -16z"/>
<path d="M2773 1315 c0 -22 2 -30 4 -17 2 12 2 30 0 40 -3 9 -5 -1 -4 -23z"/>
<path d="M5827 1318 c-3 -18 -1 -37 4 -42 5 -6 9 7 9 32 0 50 -6 54 -13 10z"/>
<path d="M6806 1342 c-5 -8 45 -52 58 -52 2 0 17 -13 33 -28 15 -16 35 -31 43
-34 8 -3 12 -9 8 -13 -4 -4 -19 0 -33 9 -13 9 -28 16 -31 15 -4 0 -11 6 -16
15 -5 9 -17 16 -26 16 -10 0 -23 5 -30 12 -9 9 -12 8 -12 -4 0 -9 6 -18 13
-21 9 -3 9 -7 0 -18 -9 -11 -8 -18 1 -32 19 -25 34 -21 28 8 -3 19 0 25 12 25
10 0 15 -4 12 -9 -3 -5 6 -17 19 -27 28 -21 33 -44 10 -44 -22 0 -18 -18 8
-31 12 -7 27 -19 34 -28 7 -9 13 -11 13 -5 0 5 -7 19 -15 30 -8 10 -15 22 -15
27 0 13 29 7 37 -8 8 -13 12 -12 33 7 16 15 25 18 28 10 7 -22 20 -13 18 13
-1 31 -3 31 -39 -2 l-28 -28 -17 21 c-9 11 -29 28 -44 37 -16 10 -28 23 -28
29 0 6 9 3 20 -7 11 -10 30 -19 42 -20 13 -2 32 -6 43 -11 11 -4 -6 13 -37 38
-31 25 -55 48 -53 50 5 5 -69 68 -79 68 -3 0 -7 -4 -10 -8z"/>
<path d="M6885 1340 c-3 -5 -1 -10 4 -10 6 0 11 5 11 10 0 6 -2 10 -4 10 -3 0
-8 -4 -11 -10z"/>
<path d="M2819 1323 c-20 -5 -32 -40 -17 -50 7 -3 8 -1 4 5 -4 7 3 16 17 21
47 18 43 37 -4 24z"/>
<path d="M8095 1299 c-13 -25 -14 -37 -5 -62 7 -22 7 -33 0 -35 -5 -2 -10 -21
-10 -43 0 -39 0 -39 40 -39 l40 0 0 -55 c0 -54 14 -79 16 -30 4 66 15 95 42
109 l26 14 -42 13 c-41 12 -42 13 -42 56 0 45 -23 103 -40 103 -5 0 -17 -14
-25 -31z m51 -41 c-3 -13 -6 -27 -6 -31 0 -5 -4 -5 -10 -2 -17 10 -12 55 6 55
12 0 15 -6 10 -22z"/>
<path d="M6918 1298 c6 -8 9 -17 6 -21 -3 -3 4 -3 15 0 28 7 22 27 -9 31 -20
3 -22 1 -12 -10z"/>
<path d="M8065 1290 c-3 -5 -1 -10 4 -10 6 0 11 5 11 10 0 6 -2 10 -4 10 -3 0
-8 -4 -11 -10z"/>
<path d="M2731 1264 c0 -11 3 -14 6 -6 3 7 2 16 -1 19 -3 4 -6 -2 -5 -13z"/>
<path d="M6960 1266 c0 -9 7 -16 16 -16 9 0 14 5 12 12 -6 18 -28 21 -28 4z"/>
<path d="M2750 1255 c0 -8 5 -15 10 -15 6 0 10 7 10 15 0 8 -4 15 -10 15 -5 0
-10 -7 -10 -15z"/>
<path d="M6775 1260 c3 -5 8 -10 11 -10 2 0 4 5 4 10 0 6 -5 10 -11 10 -5 0
-7 -4 -4 -10z"/>
<path d="M2856 1204 c-10 -25 -7 -34 9 -28 8 4 15 15 15 25 0 23 -16 25 -24 3z"/>
<path d="M7245 1170 c-3 -5 -1 -10 4 -10 6 0 11 5 11 10 0 6 -2 10 -4 10 -3 0
-8 -4 -11 -10z"/>
<path d="M2823 1163 c-7 -3 -13 -11 -13 -19 0 -8 -5 -14 -11 -14 -5 0 -7 -4
-4 -10 11 -17 25 -11 36 16 11 30 10 33 -8 27z"/>
<path d="M2605 1130 c-3 -5 1 -10 9 -10 8 0 18 5 21 10 3 6 -1 10 -9 10 -8 0
-18 -4 -21 -10z"/>
<path d="M7370 1130 c0 -5 9 -10 20 -10 11 0 20 5 20 10 0 6 -9 10 -20 10 -11
0 -20 -4 -20 -10z"/>
<path d="M7070 1110 c0 -5 5 -10 10 -10 6 0 10 5 10 10 0 6 -4 10 -10 10 -5 0
-10 -4 -10 -10z"/>
<path d="M3040 1085 c-7 -9 -11 -18 -8 -20 3 -3 11 1 18 10 7 9 11 18 8 20 -3
3 -11 -1 -18 -10z"/>
<path d="M6960 1092 c0 -6 18 -26 41 -46 23 -19 38 -39 34 -45 -3 -7 0 -8 9
-5 21 8 21 7 -18 46 -49 49 -66 62 -66 50z"/>
<path d="M7034 1081 c1 -17 26 -28 26 -11 0 6 -4 9 -9 5 -5 -3 -11 0 -14 7 -2
9 -4 8 -3 -1z"/>
<path d="M8013 1063 c-18 -7 -16 -23 2 -23 8 0 15 -9 15 -20 0 -11 -7 -20 -15
-20 -9 0 -15 -9 -15 -22 0 -12 -8 -30 -17 -40 -16 -17 -16 -20 0 -35 11 -11
17 -13 17 -5 0 17 30 15 36 -3 4 -8 14 -15 24 -15 10 0 20 -5 22 -11 2 -7 8
-6 16 4 10 12 10 18 -3 31 -13 13 -14 19 -3 36 7 11 16 20 20 20 5 0 8 7 8 16
0 12 6 15 21 11 18 -5 20 -2 14 21 -9 37 -13 39 -30 16 -13 -17 -14 -17 -15
-1 0 9 -7 17 -15 17 -8 0 -15 7 -15 15 0 15 -39 20 -67 8z"/>
<path d="M2570 1048 c0 -7 -3 -24 -6 -38 l-6 -25 21 23 c11 13 17 30 14 37 -6
18 -23 20 -23 3z"/>
<path d="M6937 1040 c3 -11 8 -18 12 -15 4 2 15 -4 23 -14 12 -14 13 -22 5
-30 -8 -8 -8 -11 1 -11 24 0 26 33 4 48 -12 8 -22 21 -22 28 0 8 -6 14 -14 14
-9 0 -12 -7 -9 -20z"/>
<path d="M7070 1044 c0 -8 5 -12 10 -9 6 4 8 11 5 16 -9 14 -15 11 -15 -7z"/>
<path d="M3060 1030 c0 -11 -3 -19 -7 -18 -11 4 -173 -158 -173 -171 0 -18 21
-12 44 12 12 12 35 34 52 50 41 38 62 63 84 100 22 36 25 47 10 47 -5 0 -10
-9 -10 -20z"/>
<path d="M7640 1020 c0 -5 5 -10 10 -10 6 0 10 5 10 10 0 6 -4 10 -10 10 -5 0
-10 -4 -10 -10z"/>
<path d="M8525 1009 c-4 -6 -5 -12 -2 -15 7 -7 37 7 37 17 0 13 -27 11 -35 -2z"/>
<path d="M6937 1004 c-7 -8 3 -35 20 -53 21 -21 25 -8 7 27 -17 34 -18 35 -27
26z"/>
<path d="M8895 980 c-3 -5 -1 -10 4 -10 6 0 11 5 11 10 0 6 -2 10 -4 10 -3 0
-8 -4 -11 -10z"/>
<path d="M2575 970 c-3 -5 -1 -10 4 -10 6 0 11 5 11 10 0 6 -2 10 -4 10 -3 0
-8 -4 -11 -10z"/>
<path d="M6900 970 c0 -5 5 -10 11 -10 5 0 7 5 4 10 -3 6 -8 10 -11 10 -2 0
-4 -4 -4 -10z"/>
<path d="M7021 967 c9 -7 18 -19 22 -27 5 -13 6 -13 6 1 1 17 -18 39 -33 39
-6 0 -4 -6 5 -13z"/>
<path d="M2488 940 c2 -16 6 -30 8 -30 2 0 4 14 4 30 0 17 -4 30 -8 30 -5 0
-7 -13 -4 -30z"/>
<path d="M2550 930 c-27 -27 -16 -44 16 -24 26 17 30 29 14 39 -5 3 -19 -4
-30 -15z"/>
<path d="M7112 920 c0 -14 2 -19 5 -12 2 6 2 18 0 25 -3 6 -5 1 -5 -13z"/>
<path d="M2630 900 c0 -5 5 -10 10 -10 6 0 10 5 10 10 0 6 -4 10 -10 10 -5 0
-10 -4 -10 -10z"/>
<path d="M6902 888 c-7 -9 -6 -19 5 -33 15 -20 15 -20 10 3 -5 20 -2 22 16 16
12 -3 20 -5 17 -2 -33 26 -38 28 -48 16z"/>
<path d="M7031 895 c-1 -21 14 -34 29 -25 13 8 13 10 -2 10 -9 0 -19 6 -21 13
-3 6 -6 8 -6 2z"/>
<path d="M6968 883 c14 -5 16 -39 3 -47 -5 -4 -11 0 -14 6 -3 10 -7 10 -17 1
-9 -9 -7 -14 10 -23 12 -6 22 -10 23 -8 1 2 7 12 13 24 13 22 1 55 -19 53 -9
0 -9 -2 1 -6z"/>
<path d="M7956 864 c-10 -27 -7 -64 7 -64 21 0 37 22 37 52 0 21 -5 28 -19 28
-10 0 -22 -7 -25 -16z"/>
<path d="M9706 819 c-3 -34 -6 -80 -6 -103 0 -30 -3 -37 -10 -26 -7 11 -10 1
-10 -35 0 -28 -5 -56 -12 -63 -9 -9 -9 -17 2 -36 7 -15 10 -38 7 -56 -4 -19
-3 -29 3 -25 6 3 11 43 11 88 l2 82 8 -114 c5 -62 11 -116 14 -119 3 -3 5 101
5 231 0 130 -2 237 -4 237 -2 0 -6 -28 -10 -61z"/>
<path d="M2523 863 c-48 -5 -57 -19 -18 -29 34 -8 32 -26 -2 -19 -22 4 -24 3
-8 -3 16 -7 17 -10 5 -14 -8 -3 -3 -3 11 -1 23 3 27 0 33 -29 7 -29 9 -30 16
-13 5 13 8 -2 9 -44 0 -35 3 -66 6 -69 3 -3 5 13 5 36 0 34 4 42 18 42 12 0
18 -9 20 -27 3 -35 12 -43 12 -10 0 33 -38 107 -54 107 -8 0 -11 14 -10 40 1
22 1 39 0 38 0 -1 -20 -3 -43 -5z"/>
<path d="M9682 825 c0 -16 2 -22 5 -12 2 9 2 23 0 30 -3 6 -5 -1 -5 -18z"/>
<path d="M8488 803 c7 -3 16 -2 19 1 4 3 -2 6 -13 5 -11 0 -14 -3 -6 -6z"/>
<path d="M7013 793 c9 -2 23 -2 30 0 6 3 -1 5 -18 5 -16 0 -22 -2 -12 -5z"/>
<path d="M8000 760 c0 -19 3 -21 12 -12 9 9 9 15 0 24 -9 9 -12 7 -12 -12z"/>
<path d="M8482 700 c0 -14 2 -19 5 -12 2 6 2 18 0 25 -3 6 -5 1 -5 -13z"/>
<path d="M2552 685 c0 -16 2 -22 5 -12 2 9 2 23 0 30 -3 6 -5 -1 -5 -18z"/>
<path d="M5840 689 c0 -5 5 -7 10 -4 6 3 10 8 10 11 0 2 -4 4 -10 4 -5 0 -10
-5 -10 -11z"/>
<path d="M2590 654 c0 -8 5 -12 10 -9 6 3 10 10 10 16 0 5 -4 9 -10 9 -5 0
-10 -7 -10 -16z"/>
<path d="M2557 624 c6 -16 19 -18 27 -5 3 5 -3 11 -13 14 -14 3 -18 1 -14 -9z"/>
<path d="M3745 590 c3 -5 8 -10 11 -10 2 0 4 5 4 10 0 6 -5 10 -11 10 -5 0 -7
-4 -4 -10z"/>
<path d="M3932 538 c-15 -15 -16 -48 0 -48 6 0 8 -3 5 -7 -4 -3 1 -15 10 -26
17 -18 17 -19 0 -28 -13 -8 -15 -14 -7 -30 6 -10 17 -19 25 -19 9 0 15 -10 15
-25 0 -19 -5 -25 -22 -26 -18 -1 -19 -2 -5 -6 14 -4 16 -8 6 -19 -9 -11 -8
-14 6 -14 11 0 15 -5 12 -14 -3 -8 3 -25 14 -38 14 -16 19 -31 15 -50 -5 -25
-2 -28 19 -28 14 0 25 -6 25 -13 0 -8 10 -23 23 -35 18 -17 26 -19 35 -10 17
17 15 58 -3 58 -11 0 -15 11 -15 39 0 29 -4 40 -17 43 -15 3 -15 4 -1 19 14
14 14 17 -4 28 -13 8 -17 18 -13 31 4 13 -3 31 -19 53 -20 26 -24 40 -20 69 5
30 3 36 -15 41 -13 3 -27 19 -34 36 -13 34 -17 37 -35 19z m43 -128 c3 -5 1
-10 -4 -10 -6 0 -11 5 -11 10 0 6 2 10 4 10 3 0 8 -4 11 -10z"/>
<path d="M9596 526 c7 -17 4 -18 -24 -13 -19 4 -32 2 -32 -3 0 -14 57 -13 66
1 3 6 1 16 -5 22 -9 9 -10 7 -5 -7z"/>
<path d="M3768 503 c6 -2 18 -2 25 0 6 3 1 5 -13 5 -14 0 -19 -2 -12 -5z"/>
<path d="M3820 490 c0 -5 5 -10 11 -10 5 0 7 5 4 10 -3 6 -8 10 -11 10 -2 0
-4 -4 -4 -10z"/>
<path d="M8450 490 c-8 -5 -28 -10 -45 -11 -16 0 -24 -3 -17 -6 6 -2 12 -14
12 -25 0 -25 23 -48 48 -48 27 0 36 28 17 56 -14 21 -14 24 0 24 8 0 15 5 15
10 0 13 -11 13 -30 0z"/>
<path d="M8512 468 c6 -18 28 -21 28 -4 0 9 -7 16 -16 16 -9 0 -14 -5 -12 -12z"/>
<path d="M8792 389 c-14 -22 -15 -29 -4 -29 11 0 33 38 24 44 -4 3 -13 -4 -20
-15z"/>
<path d="M9588 403 c7 -3 16 -2 19 1 4 3 -2 6 -13 5 -11 0 -14 -3 -6 -6z"/>
<path d="M3610 390 c-8 -5 -12 -11 -10 -14 3 -2 14 2 24 10 22 15 10 19 -14 4z"/>
<path d="M3882 388 c7 -19 38 -22 38 -4 0 10 -9 16 -21 16 -12 0 -19 -5 -17
-12z"/>
<path d="M8480 385 c0 -8 5 -15 10 -15 6 0 10 7 10 15 0 8 -4 15 -10 15 -5 0
-10 -7 -10 -15z"/>
<path d="M9713 360 c0 -25 2 -35 4 -22 2 12 2 32 0 45 -2 12 -4 2 -4 -23z"/>
<path d="M3581 354 c0 -11 3 -14 6 -6 3 7 2 16 -1 19 -3 4 -6 -2 -5 -13z"/>
<path d="M3640 360 c-13 -8 -12 -10 3 -10 9 0 17 5 17 10 0 12 -1 12 -20 0z"/>
<path d="M8480 309 c0 -5 5 -7 10 -4 6 3 10 8 10 11 0 2 -4 4 -10 4 -5 0 -10
-5 -10 -11z"/>
<path d="M3670 290 c0 -20 104 -130 123 -130 14 0 6 37 -12 57 -11 12 -17 24
-13 28 4 4 3 6 -3 5 -22 -5 -55 13 -55 30 0 10 -9 20 -20 23 -15 4 -20 0 -20
-13z"/>
<path d="M8725 280 c-3 -5 1 -13 10 -16 22 -9 29 1 11 15 -10 8 -16 9 -21 1z"/>
<path d="M8485 271 c-6 -11 9 -23 19 -14 9 9 7 23 -3 23 -6 0 -12 -4 -16 -9z"/>
<path d="M8361 144 c0 -11 3 -14 6 -6 3 7 2 16 -1 19 -3 4 -6 -2 -5 -13z"/>
<path d="M3220 105 c16 -17 19 -25 9 -25 -9 -1 -7 -5 6 -12 11 -6 28 -19 38
-29 18 -17 18 -17 0 -28 -14 -8 -3 -10 49 -11 55 0 66 3 62 15 -3 8 -13 17
-22 20 -10 3 -33 20 -53 37 -45 41 -74 58 -96 58 -14 0 -13 -4 7 -25z"/>
<path d="M4109 67 c6 -8 9 -16 7 -18 -3 -2 3 -15 13 -27 13 -18 25 -23 47 -20
26 4 27 5 9 13 -26 12 -46 37 -40 53 3 7 -5 12 -22 12 -20 0 -23 -3 -14 -13z"/>
<path d="M3950 60 c0 -5 11 -10 25 -10 25 0 33 -14 15 -25 -12 -7 -13 -25 -2
-25 4 0 16 7 26 15 19 14 19 15 1 35 -19 21 -65 28 -65 10z"/>
<path d="M8640 30 c0 -5 9 -10 21 -10 11 0 17 4 14 10 -8 13 -35 13 -35 0z"/>
<path d="M8305 20 c-8 -13 -1 -24 14 -19 6 3 7 10 2 18 -6 10 -10 10 -16 1z"/>
</g>
</svg>
